JetBrainsMoro-ItalicExtraBold.ufo
<glyph name="asterisk" format="2">
  <advance width="600"/>
  <unicode hex="002A"/>
  <outline>
    <contour>
      <point x="167" y="82" type="line"/>
      <point x="206" y="127" type="line" smooth="yes"/>
      <point x="247" y="174"/>
      <point x="284" y="257"/>
      <point x="301" y="299" type="curve"/>
      <point x="307" y="299" type="line"/>
      <point x="312" y="257"/>
      <point x="323" y="174"/>
      <point x="348" y="127" type="curve" smooth="yes"/>
      <point x="373" y="82" type="line"/>
      <point x="491" y="156" type="line"/>
      <point x="467" y="202" type="line" smooth="yes"/>
      <point x="441" y="248"/>
      <point x="382" y="297"/>
      <point x="350" y="322" type="curve"/>
      <point x="353" y="326" type="line"/>
      <point x="398" y="326"/>
      <point x="478" y="329"/>
      <point x="533" y="348" type="curve" smooth="yes"/>
      <point x="588" y="367" type="line"/>
      <point x="562" y="489" type="line"/>
      <point x="507" y="470" type="line" smooth="yes"/>
      <point x="452" y="451"/>
      <point x="381" y="401"/>
      <point x="342" y="372" type="curve"/>
      <point x="338" y="375" type="line"/>
      <point x="360" y="416"/>
      <point x="401" y="497"/>
      <point x="410" y="555" type="curve" smooth="yes"/>
      <point x="419" y="610" type="line"/>
      <point x="289" y="610" type="line"/>
      <point x="280" y="555" type="line" smooth="yes"/>
      <point x="271" y="497"/>
      <point x="286" y="416"/>
      <point x="294" y="375" type="curve"/>
      <point x="289" y="371" type="line"/>
      <point x="259" y="400"/>
      <point x="203" y="451"/>
      <point x="154" y="470" type="curve" smooth="yes"/>
      <point x="105" y="489" type="line"/>
      <point x="42" y="367" type="line"/>
      <point x="90" y="348" type="line" smooth="yes"/>
      <point x="139" y="329"/>
      <point x="220" y="326"/>
      <point x="265" y="326" type="curve"/>
      <point x="266" y="322" type="line"/>
      <point x="226" y="297"/>
      <point x="151" y="248"/>
      <point x="111" y="201" type="curve" smooth="yes"/>
      <point x="73" y="156" type="line"/>
    </contour>
  </outline>
</glyph>
<glyph name="zero" format="2">
  <advance width="600"/>
  <unicode hex="0030"/>
  <outline>
    <contour>
      <point x="254" y="-10" type="curve" smooth="yes"/>
      <point x="401" y="-10"/>
      <point x="508" y="78"/>
      <point x="529" y="210" type="curve" smooth="yes"/>
      <point x="578" y="520" type="line" smooth="yes"/>
      <point x="599" y="652"/>
      <point x="520" y="740"/>
      <point x="373" y="740" type="curve" smooth="yes"/>
      <point x="226" y="740"/>
      <point x="119" y="652"/>
      <point x="98" y="520" type="curve" smooth="yes"/>
      <point x="49" y="210" type="line" smooth="yes"/>
      <point x="28" y="78"/>
      <point x="107" y="-10"/>
    </contour>
    <contour>
      <point x="275" y="120" type="curve" smooth="yes"/>
      <point x="213" y="120"/>
      <point x="180" y="154"/>
      <point x="189" y="210" type="curve" smooth="yes"/>
      <point x="238" y="520" type="line" smooth="yes"/>
      <point x="247" y="576"/>
      <point x="290" y="610"/>
      <point x="353" y="610" type="curve" smooth="yes"/>
      <point x="416" y="610"/>
      <point x="447" y="576"/>
      <point x="438" y="520" type="curve" smooth="yes"/>
      <point x="389" y="210" type="line" smooth="yes"/>
      <point x="380" y="154"/>
      <point x="337" y="120"/>
    </contour>
    <contour>
      <point x="312" y="296" type="curve" smooth="yes"/>
      <point x="354" y="296"/>
      <point x="382" y="325"/>
      <point x="382" y="368" type="curve" smooth="yes"/>
      <point x="382" y="410"/>
      <point x="354" y="438"/>
      <point x="312" y="438" type="curve" smooth="yes"/>
      <point x="270" y="438"/>
      <point x="242" y="410"/>
      <point x="242" y="368" type="curve" smooth="yes"/>
      <point x="242" y="325"/>
      <point x="270" y="296"/>
    </contour>
  </outline>
</glyph>
<glyph name="seven" format="2">
  <advance width="600"/>
  <unicode hex="0037"/>
  <outline>
    <contour>
      <point x="90" y="0" type="line"/>
      <point x="256" y="0" type="line"/>
      <point x="615" y="596" type="line"/>
      <point x="637" y="730" type="line"/>
      <point x="127" y="730" type="line"/>
      <point x="87" y="480" type="line"/>
      <point x="237" y="480" type="line"/>
      <point x="255" y="595" type="line"/>
      <point x="455" y="595" type="line"/>
    </contour>
  </outline>
</glyph>
<glyph name="eight" format="2">
  <advance width="600"/>
  <unicode hex="0038"/>
  <outline>
    <contour>
      <point x="255" y="-10" type="curve" smooth="yes"/>
      <point x="407" y="-10"/>
      <point x="521" y="68"/>
      <point x="541" y="192" type="curve" smooth="yes"/>
      <point x="554" y="276"/>
      <point x="514" y="338"/>
      <point x="418" y="384" type="curve" smooth="yes"/>
      <point x="305" y="438" type="line" smooth="yes"/>
      <point x="266" y="457"/>
      <point x="242" y="492"/>
      <point x="248" y="534" type="curve" smooth="yes"/>
      <point x="256" y="582"/>
      <point x="299" y="616"/>
      <point x="354" y="616" type="curve" smooth="yes"/>
      <point x="408" y="616"/>
      <point x="440" y="582"/>
      <point x="432" y="534" type="curve" smooth="yes"/>
      <point x="425" y="491"/>
      <point x="391" y="455"/>
      <point x="347" y="437" type="curve" smooth="yes"/>
      <point x="216" y="384" type="line" smooth="yes"/>
      <point x="117" y="344"/>
      <point x="47" y="282"/>
      <point x="33" y="192" type="curve" smooth="yes"/>
      <point x="14" y="71"/>
      <point x="103" y="-10"/>
    </contour>
    <contour>
      <point x="275" y="114" type="curve" smooth="yes"/>
      <point x="215" y="114"/>
      <point x="173" y="153"/>
      <point x="181" y="205" type="curve" smooth="yes"/>
      <point x="187" y="245"/>
      <point x="231" y="287"/>
      <point x="277" y="306" type="curve" smooth="yes"/>
      <point x="424" y="367" type="line" smooth="yes"/>
      <point x="507" y="402"/>
      <point x="566" y="459"/>
      <point x="580" y="544" type="curve" smooth="yes"/>
      <point x="597" y="654"/>
      <point x="519" y="740"/>
      <point x="374" y="740" type="curve" smooth="yes"/>
      <point x="228" y="740"/>
      <point x="121" y="654"/>
      <point x="104" y="544" type="curve" smooth="yes"/>
      <point x="91" y="462"/>
      <point x="132" y="403"/>
      <point x="207" y="367" type="curve" smooth="yes"/>
      <point x="333" y="306" type="line" smooth="yes"/>
      <point x="373" y="287"/>
      <point x="403" y="244"/>
      <point x="397" y="204" type="curve" smooth="yes"/>
      <point x="389" y="153"/>
      <point x="335" y="114"/>
    </contour>
  </outline>
</glyph>
<glyph name="nine" format="2">
  <advance width="600"/>
  <unicode hex="0039"/>
  <outline>
    <contour>
      <point x="112" y="0" type="line"/>
      <point x="292" y="0" type="line"/>
      <point x="486" y="275" type="line" smooth="yes"/>
      <point x="545" y="359"/>
      <point x="580" y="430"/>
      <point x="590" y="492" type="curve" smooth="yes"/>
      <point x="613" y="637"/>
      <point x="523" y="740"/>
      <point x="374" y="740" type="curve" smooth="yes"/>
      <point x="225" y="740"/>
      <point x="104" y="641"/>
      <point x="81" y="501" type="curve" smooth="yes"/>
      <point x="61" y="371"/>
      <point x="125" y="278"/>
      <point x="237" y="278" type="curve" smooth="yes"/>
      <point x="294" y="278"/>
      <point x="326" y="303"/>
      <point x="362" y="346" type="curve"/>
      <point x="368" y="342" type="line"/>
    </contour>
    <contour>
      <point x="319" y="389" type="curve" smooth="yes"/>
      <point x="255" y="389"/>
      <point x="217" y="436"/>
      <point x="228" y="503" type="curve" smooth="yes"/>
      <point x="238" y="568"/>
      <point x="290" y="615"/>
      <point x="354" y="615" type="curve" smooth="yes"/>
      <point x="418" y="615"/>
      <point x="456" y="568"/>
      <point x="446" y="503" type="curve" smooth="yes"/>
      <point x="435" y="436"/>
      <point x="383" y="389"/>
    </contour>
  </outline>
</glyph>
<glyph name="colon" format="2">
  <advance width="600"/>
  <unicode hex="003A"/>
  <outline>
    <contour>
      <point x="316" y="380" type="curve" smooth="yes"/>
      <point x="376" y="380"/>
      <point x="422" y="416"/>
      <point x="430" y="470" type="curve" smooth="yes"/>
      <point x="439" y="524"/>
      <point x="405" y="560"/>
      <point x="345" y="560" type="curve" smooth="yes"/>
      <point x="285" y="560"/>
      <point x="239" y="524"/>
      <point x="230" y="470" type="curve" smooth="yes"/>
      <point x="222" y="416"/>
      <point x="256" y="380"/>
    </contour>
    <contour>
      <point x="254" y="-10" type="curve" smooth="yes"/>
      <point x="314" y="-10"/>
      <point x="360" y="26"/>
      <point x="369" y="80" type="curve" smooth="yes"/>
      <point x="377" y="134"/>
      <point x="343" y="170"/>
      <point x="283" y="170" type="curve" smooth="yes"/>
      <point x="223" y="170"/>
      <point x="177" y="134"/>
      <point x="169" y="80" type="curve" smooth="yes"/>
      <point x="160" y="26"/>
      <point x="194" y="-10"/>
    </contour>
  </outline>
</glyph>
<glyph name="less" format="2">
  <advance width="600"/>
  <unicode hex="003C"/>
  <outline>
    <contour>
      <point x="494" y="49" type="line"/>
      <point x="515" y="182" type="line"/>
      <point x="259" y="303" type="line" smooth="yes"/>
      <point x="234" y="315"/>
      <point x="202" y="322"/>
      <point x="185" y="325" type="curve"/>
      <point x="203" y="328"/>
      <point x="237" y="336"/>
      <point x="266" y="348" type="curve" smooth="yes"/>
      <point x="561" y="469" type="line"/>
      <point x="582" y="609" type="line"/>
      <point x="89" y="400" type="line"/>
      <point x="67" y="257" type="line"/>
    </contour>
  </outline>
</glyph>
<glyph name="K" format="2">
  <advance width="600"/>
  <unicode hex="004B"/>
  <anchor x="256" y="0" name="bottom"/>
  <anchor x="372" y="730" name="top"/>
  <outline>
    <contour>
      <point x="21" y="0" type="line"/>
      <point x="171" y="0" type="line"/>
      <point x="220" y="309" type="line"/>
      <point x="296" y="309" type="line"/>
      <point x="372" y="0" type="line"/>
      <point x="531" y="0" type="line"/>
      <point x="429" y="372" type="line"/>
      <point x="641" y="730" type="line"/>
      <point x="478" y="730" type="line"/>
      <point x="310" y="447" type="line"/>
      <point x="242" y="447" type="line"/>
      <point x="287" y="730" type="line"/>
      <point x="137" y="730" type="line"/>
    </contour>
  </outline>
</glyph>
<glyph name="O" format="2">
  <advance width="600"/>
  <unicode hex="004F"/>
  <anchor x="256" y="0" name="bottom"/>
  <anchor x="314" y="365" name="center"/>
  <anchor x="387" y="700" name="horn"/>
  <anchor x="305" y="0" name="ogonek"/>
  <anchor x="372" y="730" name="top"/>
  <anchor x="92" y="730" name="topleft"/>
  <anchor x="652" y="730" name="topright"/>
  <outline>
    <contour>
      <point x="254" y="-10" type="curve" smooth="yes"/>
      <point x="401" y="-10"/>
      <point x="508" y="78"/>
      <point x="529" y="210" type="curve" smooth="yes"/>
      <point x="578" y="520" type="line" smooth="yes"/>
      <point x="599" y="652"/>
      <point x="520" y="740"/>
      <point x="373" y="740" type="curve" smooth="yes"/>
      <point x="226" y="740"/>
      <point x="119" y="652"/>
      <point x="98" y="520" type="curve" smooth="yes"/>
      <point x="49" y="210" type="line" smooth="yes"/>
      <point x="28" y="78"/>
      <point x="107" y="-10"/>
    </contour>
    <contour>
      <point x="275" y="120" type="curve" smooth="yes"/>
      <point x="215" y="120"/>
      <point x="190" y="152"/>
      <point x="199" y="210" type="curve" smooth="yes"/>
      <point x="248" y="520" type="line" smooth="yes"/>
      <point x="257" y="578"/>
      <point x="292" y="610"/>
      <point x="353" y="610" type="curve" smooth="yes"/>
      <point x="414" y="610"/>
      <point x="437" y="578"/>
      <point x="428" y="520" type="curve" smooth="yes"/>
      <point x="379" y="210" type="line" smooth="yes"/>
      <point x="370" y="152"/>
      <point x="335" y="120"/>
    </contour>
  </outline>
</glyph>
<glyph name="Q" format="2">
  <advance width="600"/>
  <unicode hex="0051"/>
  <anchor x="256" y="0" name="bottom"/>
  <anchor x="372" y="730" name="top"/>
  <outline>
    <contour>
      <point x="332" y="-180" type="line"/>
      <point x="479" y="-180" type="line"/>
      <point x="362" y="77" type="line"/>
      <point x="345" y="3" type="line"/>
      <point x="447" y="29"/>
      <point x="513" y="106"/>
      <point x="529" y="210" type="curve" smooth="yes"/>
      <point x="578" y="520" type="line" smooth="yes"/>
      <point x="599" y="652"/>
      <point x="517" y="740"/>
      <point x="373" y="740" type="curve" smooth="yes"/>
      <point x="228" y="740"/>
      <point x="119" y="653"/>
      <point x="98" y="520" type="curve" smooth="yes"/>
      <point x="49" y="210" type="line" smooth="yes"/>
      <point x="28" y="79"/>
      <point x="110" y="-10"/>
      <point x="254" y="-10" type="curve" smooth="yes"/>
      <point x="260" y="-10"/>
      <point x="269" y="-9"/>
      <point x="274" y="-9" type="curve"/>
      <point x="250" y="4" type="line"/>
    </contour>
    <contour>
      <point x="275" y="121" type="curve" smooth="yes"/>
      <point x="213" y="121"/>
      <point x="190" y="153"/>
      <point x="199" y="210" type="curve" smooth="yes"/>
      <point x="248" y="520" type="line" smooth="yes"/>
      <point x="257" y="578"/>
      <point x="295" y="610"/>
      <point x="353" y="610" type="curve" smooth="yes"/>
      <point x="411" y="610"/>
      <point x="437" y="578"/>
      <point x="428" y="520" type="curve" smooth="yes"/>
      <point x="379" y="210" type="line" smooth="yes"/>
      <point x="370" y="153"/>
      <point x="337" y="121"/>
    </contour>
  </outline>
</glyph>
<glyph name="S" format="2">
  <advance width="600"/>
  <unicode hex="0053"/>
  <anchor x="256" y="0" name="bottom"/>
  <anchor x="372" y="730" name="top"/>
  <outline>
    <contour>
      <point x="254" y="-10" type="curve" smooth="yes"/>
      <point x="409" y="-10"/>
      <point x="520" y="74"/>
      <point x="542" y="206" type="curve" smooth="yes"/>
      <point x="559" y="319"/>
      <point x="500" y="398"/>
      <point x="377" y="428" type="curve" smooth="yes"/>
      <point x="302" y="446" type="line" smooth="yes"/>
      <point x="259" y="456"/>
      <point x="240" y="489"/>
      <point x="248" y="535" type="curve" smooth="yes"/>
      <point x="255" y="583"/>
      <point x="291" y="610"/>
      <point x="349" y="610" type="curve" smooth="yes"/>
      <point x="410" y="610"/>
      <point x="439" y="581"/>
      <point x="432" y="535" type="curve"/>
      <point x="582" y="535" type="line"/>
      <point x="602" y="660"/>
      <point x="520" y="740"/>
      <point x="371" y="740" type="curve" smooth="yes"/>
      <point x="223" y="740"/>
      <point x="117" y="657"/>
      <point x="97" y="529" type="curve" smooth="yes"/>
      <point x="80" y="418"/>
      <point x="140" y="335"/>
      <point x="260" y="306" type="curve" smooth="yes"/>
      <point x="331" y="289" type="line" smooth="yes"/>
      <point x="376" y="278"/>
      <point x="397" y="244"/>
      <point x="391" y="199" type="curve" smooth="yes"/>
      <point x="383" y="149"/>
      <point x="341" y="120"/>
      <point x="278" y="120" type="curve" smooth="yes"/>
      <point x="213" y="120"/>
      <point x="177" y="151"/>
      <point x="185" y="200" type="curve"/>
      <point x="35" y="200" type="line"/>
      <point x="14" y="72"/>
      <point x="100" y="-10"/>
    </contour>
  </outline>
</glyph>
<glyph name="X" format="2">
  <advance width="600"/>
  <unicode hex="0058"/>
  <anchor x="256" y="0" name="bottom"/>
  <anchor x="372" y="730" name="top"/>
  <outline>
    <contour>
      <point x="-24" y="0" type="line"/>
      <point x="142" y="0" type="line"/>
      <point x="259" y="180" type="line" smooth="yes"/>
      <point x="278" y="209"/>
      <point x="291" y="237"/>
      <point x="297" y="250" type="curve"/>
      <point x="300" y="237"/>
      <point x="307" y="209"/>
      <point x="317" y="180" type="curve" smooth="yes"/>
      <point x="376" y="0" type="line"/>
      <point x="536" y="0" type="line"/>
      <point x="400" y="373" type="line"/>
      <point x="639" y="730" type="line"/>
      <point x="473" y="730" type="line"/>
      <point x="369" y="570" type="line" smooth="yes"/>
      <point x="350" y="541"/>
      <point x="339" y="515"/>
      <point x="334" y="504" type="curve"/>
      <point x="333" y="515"/>
      <point x="324" y="540"/>
      <point x="315" y="570" type="curve" smooth="yes"/>
      <point x="265" y="730" type="line"/>
      <point x="105" y="730" type="line"/>
      <point x="232" y="381" type="line"/>
    </contour>
  </outline>
</glyph>
<glyph name="backslash" format="2">
  <advance width="600"/>
  <unicode hex="005C"/>
  <outline>
    <contour>
      <point x="337" y="-110" type="line"/>
      <point x="488" y="-110" type="line"/>
      <point x="287" y="830" type="line"/>
      <point x="136" y="830" type="line"/>
    </contour>
  </outline>
</glyph>
<glyph name="asciicircum" format="2">
  <advance width="600"/>
  <unicode hex="005E"/>
  <outline>
    <contour>
      <point x="70" y="340" type="line"/>
      <point x="214" y="340" type="line"/>
      <point x="327" y="550" type="line" smooth="yes"/>
      <point x="343" y="580"/>
      <point x="353" y="609"/>
      <point x="357" y="622" type="curve"/>
      <point x="357" y="609"/>
      <point x="361" y="580"/>
      <point x="367" y="550" type="curve" smooth="yes"/>
      <point x="411" y="340" type="line"/>
      <point x="550" y="340" type="line"/>
      <point x="446" y="730" type="line"/>
      <point x="300" y="730" type="line"/>
    </contour>
  </outline>
</glyph>
<glyph name="f" format="2">
  <advance width="600"/>
  <unicode hex="0066"/>
  <anchor x="256" y="0" name="bottom"/>
  <anchor x="372" y="730" name="top"/>
  <outline>
    <contour>
      <point x="0" y="-180" type="line"/>
      <point x="48" y="-180" type="line" smooth="yes"/>
      <point x="189" y="-180"/>
      <point x="289" y="-106"/>
      <point x="308" y="14" type="curve" smooth="yes"/>
      <point x="362" y="350" type="line"/>
      <point x="557" y="350" type="line"/>
      <point x="579" y="485" type="line"/>
      <point x="384" y="485" type="line"/>
      <point x="395" y="555" type="line" smooth="yes"/>
      <point x="399" y="582"/>
      <point x="420" y="600"/>
      <point x="447" y="600" type="curve" smooth="yes"/>
      <point x="579" y="600" type="line"/>
      <point x="600" y="730" type="line"/>
      <point x="463" y="730" type="line" smooth="yes"/>
      <point x="349" y="730"/>
      <point x="262" y="662"/>
      <point x="246" y="560" type="curve" smooth="yes"/>
      <point x="234" y="485" type="line"/>
      <point x="82" y="485" type="line"/>
      <point x="60" y="350" type="line"/>
      <point x="212" y="350" type="line"/>
      <point x="159" y="19" type="line" smooth="yes"/>
      <point x="151" y="-31"/>
      <point x="115" y="-60"/>
      <point x="62" y="-60" type="curve" smooth="yes"/>
      <point x="19" y="-60" type="line"/>
    </contour>
  </outline>
</glyph>
<glyph name="k" format="2">
  <advance width="600"/>
  <unicode hex="006B"/>
  <anchor x="256" y="0" name="bottom"/>
  <anchor x="372" y="730" name="top"/>
  <outline>
    <contour>
      <point x="25" y="0" type="line"/>
      <point x="175" y="0" type="line"/>
      <point x="209" y="216" type="line"/>
      <point x="287" y="216" type="line"/>
      <point x="371" y="0" type="line"/>
      <point x="534" y="0" type="line"/>
      <point x="420" y="274" type="line"/>
      <point x="618" y="550" type="line"/>
      <point x="448" y="550" type="line"/>
      <point x="300" y="342" type="line"/>
      <point x="229" y="342" type="line"/>
      <point x="291" y="730" type="line"/>
      <point x="141" y="730" type="line"/>
    </contour>
  </outline>
</glyph>
<glyph name="m" format="2">
  <advance width="600"/>
  <unicode hex="006D"/>
  <anchor x="256" y="0" name="bottom"/>
  <anchor x="344" y="550" name="top"/>
  <outline>
    <contour>
      <point x="-2" y="0" type="line"/>
      <point x="127" y="0" type="line"/>
      <point x="190" y="403" type="line" smooth="yes"/>
      <point x="195" y="434"/>
      <point x="212" y="451"/>
      <point x="237" y="451" type="curve" smooth="yes"/>
      <point x="262" y="451"/>
      <point x="273" y="434"/>
      <point x="268" y="403" type="curve" smooth="yes"/>
      <point x="205" y="0" type="line"/>
      <point x="308" y="0" type="line"/>
      <point x="371" y="403" type="line" smooth="yes"/>
      <point x="376" y="434"/>
      <point x="393" y="451"/>
      <point x="418" y="451" type="curve" smooth="yes"/>
      <point x="443" y="451"/>
      <point x="454" y="434"/>
      <point x="449" y="403" type="curve" smooth="yes"/>
      <point x="386" y="0" type="line"/>
      <point x="515" y="0" type="line"/>
      <point x="581" y="420" type="line" smooth="yes"/>
      <point x="594" y="502"/>
      <point x="556" y="560"/>
      <point x="491" y="560" type="curve" smooth="yes"/>
      <point x="435" y="560"/>
      <point x="389" y="517"/>
      <point x="379" y="456" type="curve"/>
      <point x="390" y="470" type="line"/>
      <point x="362" y="470" type="line"/>
      <point x="375" y="440" type="line"/>
      <point x="386" y="510"/>
      <point x="355" y="560"/>
      <point x="299" y="560" type="curve" smooth="yes"/>
      <point x="246" y="560"/>
      <point x="203" y="517"/>
      <point x="193" y="456" type="curve"/>
      <point x="214" y="470" type="line"/>
      <point x="190" y="470" type="line"/>
      <point x="203" y="550" type="line"/>
      <point x="85" y="550" type="line"/>
    </contour>
  </outline>
</glyph>
<glyph name="z" format="2">
  <advance width="600"/>
  <unicode hex="007A"/>
  <anchor x="256" y="0" name="bottom"/>
  <anchor x="300" y="275" name="center"/>
  <anchor x="343" y="550" name="top"/>
  <outline>
    <contour>
      <point x="26" y="0" type="line"/>
      <point x="486" y="0" type="line"/>
      <point x="507" y="130" type="line"/>
      <point x="228" y="130" type="line"/>
      <point x="542" y="420" type="line"/>
      <point x="562" y="550" type="line"/>
      <point x="123" y="550" type="line"/>
      <point x="103" y="420" type="line"/>
      <point x="361" y="420" type="line"/>
      <point x="47" y="130" type="line"/>
    </contour>
  </outline>
</glyph>
<glyph name="asciitilde" format="2">
  <advance width="600"/>
  <unicode hex="007E"/>
  <outline>
    <contour>
      <point x="36" y="255" type="line"/>
      <point x="156" y="255" type="line"/>
      <point x="168" y="330" type="line" smooth="yes"/>
      <point x="172" y="352"/>
      <point x="185" y="365"/>
      <point x="206" y="365" type="curve" smooth="yes"/>
      <point x="274" y="365"/>
      <point x="252" y="225"/>
      <point x="397" y="225" type="curve" smooth="yes"/>
      <point x="492" y="225"/>
      <point x="560" y="280"/>
      <point x="574" y="365" type="curve" smooth="yes"/>
      <point x="587" y="450" type="line"/>
      <point x="467" y="450" type="line"/>
      <point x="455" y="375" type="line" smooth="yes"/>
      <point x="452" y="353"/>
      <point x="439" y="340"/>
      <point x="418" y="340" type="curve" smooth="yes"/>
      <point x="350" y="340"/>
      <point x="372" y="480"/>
      <point x="227" y="480" type="curve" smooth="yes"/>
      <point x="133" y="480"/>
      <point x="63" y="425"/>
      <point x="50" y="340" type="curve" smooth="yes"/>
    </contour>
  </outline>
</glyph>
<glyph name="cent" format="2">
  <advance width="600"/>
  <unicode hex="00A2"/>
  <anchor x="259" y="0" name="bottom"/>
  <anchor x="346" y="550" name="top"/>
  <outline>
    <contour>
      <point x="206" y="-140" type="line"/>
      <point x="271" y="-140" type="line"/>
      <point x="402" y="690" type="line"/>
      <point x="337" y="690" type="line"/>
    </contour>
    <component base="c"/>
  </outline>
</glyph>
<glyph name="onesuperior" format="2">
  <advance width="600"/>
  <unicode hex="00B9"/>
  <outline>
    <contour>
      <point x="165" y="405" type="line"/>
      <point x="495" y="405" type="line"/>
      <point x="509" y="490" type="line"/>
      <point x="407" y="490" type="line"/>
      <point x="460" y="830" type="line"/>
      <point x="340" y="830" type="line"/>
      <point x="230" y="756" type="line"/>
      <point x="214" y="658" type="line"/>
      <point x="352" y="747" type="line"/>
      <point x="312" y="490" type="line"/>
      <point x="179" y="490" type="line"/>
    </contour>
  </outline>
</glyph>
<glyph name="threequarters" format="2">
  <advance width="600"/>
  <unicode hex="00BE"/>
  <outline>
    <contour>
      <point x="415" y="0" type="line"/>
      <point x="505" y="0" type="line"/>
      <point x="537" y="205" type="line"/>
      <point x="447" y="205" type="line"/>
      <point x="436" y="130" type="line"/>
      <point x="361" y="130" type="line"/>
      <point x="363" y="146" type="line"/>
      <point x="526" y="325" type="line"/>
      <point x="427" y="325" type="line"/>
      <point x="275" y="160" type="line"/>
      <point x="260" y="60" type="line"/>
      <point x="425" y="60" type="line"/>
    </contour>
    <contour>
      <point x="174" y="400" type="curve" smooth="yes"/>
      <point x="256" y="400"/>
      <point x="317" y="444"/>
      <point x="328" y="510" type="curve" smooth="yes"/>
      <point x="337" y="570"/>
      <point x="298" y="610"/>
      <point x="229" y="610" type="curve"/>
      <point x="225" y="590" type="line"/>
      <point x="338" y="668" type="line"/>
      <point x="348" y="730" type="line"/>
      <point x="113" y="730" type="line"/>
      <point x="102" y="665" type="line"/>
      <point x="249" y="665" type="line"/>
      <point x="180" y="616" type="line"/>
      <point x="169" y="550" type="line"/>
      <point x="199" y="550" type="line" smooth="yes"/>
      <point x="226" y="550"/>
      <point x="242" y="534"/>
      <point x="238" y="510" type="curve" smooth="yes"/>
      <point x="234" y="486"/>
      <point x="213" y="470"/>
      <point x="185" y="470" type="curve" smooth="yes"/>
      <point x="156" y="470"/>
      <point x="140" y="484"/>
      <point x="143" y="505" type="curve"/>
      <point x="53" y="505" type="line"/>
      <point x="43" y="442"/>
      <point x="91" y="400"/>
    </contour>
    <component base="fraction"/>
  </outline>
</glyph>
<glyph name="Ccedilla" format="2">
  <advance width="600"/>
  <unicode hex="00C7"/>
  <anchor x="261" y="0" name="bottom"/>
  <anchor x="377" y="730" name="top"/>
  <outline>
    <contour>
      <point x="120" y="-225" type="line"/>
      <point x="230" y="-225" type="line" smooth="yes"/>
      <point x="314" y="-225"/>
      <point x="377" y="-182"/>
      <point x="385" y="-133" type="curve" smooth="yes"/>
      <point x="395" y="-72"/>
      <point x="318" y="-43"/>
      <point x="258" y="-39" type="curve"/>
      <point x="286" y="16" type="line"/>
      <point x="213" y="16" type="line"/>
      <point x="164" y="-69" type="line"/>
      <point x="237" y="-69"/>
      <point x="277" y="-88"/>
      <point x="272" y="-119" type="curve" smooth="yes"/>
      <point x="270" y="-135"/>
      <point x="244" y="-155"/>
      <point x="211" y="-155" type="curve" smooth="yes"/>
      <point x="131" y="-155" type="line"/>
    </contour>
    <component base="C"/>
  </outline>
</glyph>
<glyph name="multiply" format="2">
  <advance width="600"/>
  <unicode hex="00D7"/>
  <outline>
    <contour>
      <point x="154" y="100" type="line"/>
      <point x="292" y="221" type="line"/>
      <point x="394" y="100" type="line"/>
      <point x="511" y="201" type="line"/>
      <point x="410" y="323" type="line"/>
      <point x="549" y="441" type="line"/>
      <point x="460" y="546" type="line"/>
      <point x="322" y="426" type="line"/>
      <point x="220" y="546" type="line"/>
      <point x="103" y="445" type="line"/>
      <point x="203" y="323" type="line"/>
      <point x="65" y="205" type="line"/>
    </contour>
  </outline>
</glyph>
<glyph name="ccedilla" format="2">
  <advance width="600"/>
  <unicode hex="00E7"/>
  <anchor x="259" y="0" name="_bottom"/>
  <anchor x="259" y="0" name="bottom"/>
  <anchor x="346" y="550" name="top"/>
  <outline>
    <contour>
      <point x="113" y="-225" type="line"/>
      <point x="223" y="-225" type="line" smooth="yes"/>
      <point x="307" y="-225"/>
      <point x="370" y="-182"/>
      <point x="378" y="-133" type="curve" smooth="yes"/>
      <point x="388" y="-72"/>
      <point x="311" y="-43"/>
      <point x="251" y="-39" type="curve"/>
      <point x="279" y="16" type="line"/>
      <point x="206" y="16" type="line"/>
      <point x="157" y="-69" type="line"/>
      <point x="230" y="-69"/>
      <point x="270" y="-88"/>
      <point x="265" y="-119" type="curve" smooth="yes"/>
      <point x="263" y="-135"/>
      <point x="237" y="-155"/>
      <point x="204" y="-155" type="curve" smooth="yes"/>
      <point x="124" y="-155" type="line"/>
    </contour>
    <component base="c"/>
  </outline>
</glyph>
<glyph name="divide" format="2">
  <advance width="600"/>
  <unicode hex="00F7"/>
  <outline>
    <contour>
      <point x="98" y="260" type="line"/>
      <point x="498" y="260" type="line"/>
      <point x="520" y="400" type="line"/>
      <point x="120" y="400" type="line"/>
    </contour>
    <contour>
      <point x="330" y="460" type="curve" smooth="yes"/>
      <point x="390" y="460"/>
      <point x="436" y="496"/>
      <point x="444" y="550" type="curve" smooth="yes"/>
      <point x="453" y="604"/>
      <point x="418" y="640"/>
      <point x="358" y="640" type="curve" smooth="yes"/>
      <point x="298" y="640"/>
      <point x="253" y="604"/>
      <point x="244" y="550" type="curve" smooth="yes"/>
      <point x="236" y="496"/>
      <point x="270" y="460"/>
    </contour>
    <contour>
      <point x="260" y="20" type="curve" smooth="yes"/>
      <point x="320" y="20"/>
      <point x="366" y="56"/>
      <point x="374" y="110" type="curve" smooth="yes"/>
      <point x="383" y="164"/>
      <point x="349" y="200"/>
      <point x="289" y="200" type="curve" smooth="yes"/>
      <point x="229" y="200"/>
      <point x="183" y="164"/>
      <point x="174" y="110" type="curve" smooth="yes"/>
      <point x="166" y="56"/>
      <point x="200" y="20"/>
    </contour>
  </outline>
</glyph>
<glyph name="oslash" format="2">
  <advance width="600"/>
  <unicode hex="00F8"/>
  <anchor x="256" y="0" name="bottom"/>
  <anchor x="363" y="550" name="horn"/>
  <anchor x="343" y="550" name="top"/>
  <outline>
    <contour>
      <point x="-24" y="-30" type="line"/>
      <point x="91" y="-30" type="line"/>
      <point x="624" y="590" type="line"/>
      <point x="509" y="590" type="line"/>
    </contour>
    <contour>
      <point x="254" y="-10" type="curve" smooth="yes"/>
      <point x="401" y="-10"/>
      <point x="508" y="78"/>
      <point x="529" y="210" type="curve" smooth="yes"/>
      <point x="550" y="340" type="line" smooth="yes"/>
      <point x="571" y="472"/>
      <point x="492" y="560"/>
      <point x="345" y="560" type="curve" smooth="yes"/>
      <point x="198" y="560"/>
      <point x="91" y="472"/>
      <point x="70" y="340" type="curve" smooth="yes"/>
      <point x="49" y="210" type="line" smooth="yes"/>
      <point x="28" y="78"/>
      <point x="107" y="-10"/>
    </contour>
    <contour>
      <point x="275" y="120" type="curve" smooth="yes"/>
      <point x="212" y="120"/>
      <point x="180" y="154"/>
      <point x="189" y="210" type="curve" smooth="yes"/>
      <point x="210" y="340" type="line" smooth="yes"/>
      <point x="219" y="396"/>
      <point x="261" y="430"/>
      <point x="324" y="430" type="curve" smooth="yes"/>
      <point x="387" y="430"/>
      <point x="419" y="396"/>
      <point x="410" y="340" type="curve" smooth="yes"/>
      <point x="389" y="210" type="line" smooth="yes"/>
      <point x="380" y="154"/>
      <point x="338" y="120"/>
    </contour>
  </outline>
</glyph>
<glyph name="dcroat" format="2">
  <advance width="600"/>
  <unicode hex="0111"/>
  <outline>
    <contour>
      <point x="48" y="205" type="line" smooth="yes"/>
      <point x="28" y="73"/>
      <point x="86" y="-10"/>
      <point x="197" y="-10" type="curve" smooth="yes"/>
      <point x="276" y="-10"/>
      <point x="335" y="32"/>
      <point x="359" y="105" type="curve"/>
      <point x="362" y="105" type="line"/>
      <point x="345" y="0" type="line"/>
      <point x="490" y="0" type="line"/>
      <point x="578" y="555" type="line"/>
      <point x="644" y="555" type="line"/>
      <point x="658" y="645" type="line"/>
      <point x="592" y="645" type="line"/>
      <point x="606" y="730" type="line"/>
      <point x="456" y="730" type="line"/>
      <point x="442" y="645" type="line"/>
      <point x="298" y="645" type="line"/>
      <point x="284" y="555" type="line"/>
      <point x="428" y="555" type="line"/>
      <point x="422" y="520" type="line"/>
      <point x="406" y="385" type="line"/>
      <point x="403" y="385" type="line"/>
      <point x="403" y="458"/>
      <point x="357" y="500"/>
      <point x="278" y="500" type="curve" smooth="yes"/>
      <point x="167" y="500"/>
      <point x="82" y="416"/>
      <point x="61" y="285" type="curve" smooth="yes"/>
    </contour>
    <contour>
      <point x="199" y="210" type="curve" smooth="yes"/>
      <point x="210" y="280" type="line" smooth="yes"/>
      <point x="219" y="337"/>
      <point x="256" y="370"/>
      <point x="312" y="370" type="curve" smooth="yes"/>
      <point x="367" y="370"/>
      <point x="393" y="337"/>
      <point x="384" y="280" type="curve" smooth="yes"/>
      <point x="373" y="210" type="line" smooth="yes"/>
      <point x="364" y="152"/>
      <point x="327" y="120"/>
      <point x="272" y="120" type="curve" smooth="yes"/>
      <point x="216" y="120"/>
      <point x="190" y="152"/>
    </contour>
  </outline>
</glyph>
<glyph name="Eogonek" format="2">
  <advance width="600"/>
  <unicode hex="0118"/>
  <anchor x="320" y="0" name="bottom"/>
  <anchor x="380" y="0" name="ogonek"/>
  <anchor x="392" y="730" name="top"/>
  <anchor x="92" y="730" name="topleft"/>
  <outline>
    <contour>
      <point x="346" y="-225" type="curve" smooth="yes"/>
      <point x="454" y="-225" type="line"/>
      <point x="471" y="-120" type="line"/>
      <point x="402" y="-120" type="line" smooth="yes"/>
      <point x="373" y="-120"/>
      <point x="359" y="-103"/>
      <point x="362" y="-83" type="curve" smooth="yes"/>
      <point x="365" y="-66"/>
      <point x="383" y="-42"/>
      <point x="413" y="-18" type="curve" smooth="yes"/>
      <point x="450" y="11" type="line"/>
      <point x="364" y="11" type="line"/>
      <point x="291" y="-19"/>
      <point x="240" y="-68"/>
      <point x="233" y="-115" type="curve" smooth="yes"/>
      <point x="222" y="-180"/>
      <point x="265" y="-225"/>
    </contour>
    <component base="E"/>
  </outline>
</glyph>
<glyph name="idotless" format="2">
  <advance width="600"/>
  <unicode hex="0131"/>
  <anchor x="276" y="0" name="bottom"/>
  <anchor x="290" y="0" name="ogonek"/>
  <anchor x="363" y="550" name="top"/>
  <outline>
    <contour>
      <point x="26" y="0" type="line"/>
      <point x="516" y="0" type="line"/>
      <point x="538" y="136" type="line"/>
      <point x="378" y="136" type="line"/>
      <point x="443" y="550" type="line"/>
      <point x="138" y="550" type="line"/>
      <point x="117" y="415" type="line"/>
      <point x="282" y="415" type="line"/>
      <point x="238" y="136" type="line"/>
      <point x="48" y="136" type="line"/>
    </contour>
  </outline>
</glyph>
<glyph name="Lslash" format="2">
  <advance width="600"/>
  <unicode hex="0141"/>
  <anchor x="306" y="0" name="bottom"/>
  <anchor x="324" y="365" name="center"/>
  <anchor x="272" y="730" name="top"/>
  <anchor x="662" y="730" name="topright"/>
  <outline>
    <contour>
      <point x="12" y="225" type="line"/>
      <point x="423" y="420" type="line"/>
      <point x="445" y="565" type="line"/>
      <point x="35" y="370" type="line"/>
    </contour>
    <component base="L" xOffset="10"/>
  </outline>
</glyph>
<glyph name="Scedilla" format="2">
  <advance width="600"/>
  <unicode hex="015E"/>
  <anchor x="256" y="0" name="_bottom"/>
  <anchor x="256" y="0" name="bottom"/>
  <anchor x="372" y="730" name="top"/>
  <outline>
    <contour>
      <point x="115" y="-225" type="line"/>
      <point x="225" y="-225" type="line" smooth="yes"/>
      <point x="309" y="-225"/>
      <point x="372" y="-182"/>
      <point x="380" y="-133" type="curve" smooth="yes"/>
      <point x="390" y="-72"/>
      <point x="313" y="-43"/>
      <point x="253" y="-39" type="curve"/>
      <point x="281" y="16" type="line"/>
      <point x="208" y="16" type="line"/>
      <point x="159" y="-69" type="line"/>
      <point x="232" y="-69"/>
      <point x="272" y="-88"/>
      <point x="267" y="-119" type="curve" smooth="yes"/>
      <point x="265" y="-135"/>
      <point x="239" y="-155"/>
      <point x="206" y="-155" type="curve" smooth="yes"/>
      <point x="126" y="-155" type="line"/>
    </contour>
    <component base="S"/>
  </outline>
</glyph>
<glyph name="tcedilla" format="2">
  <advance width="600"/>
  <unicode hex="0163"/>
  <anchor x="360" y="0" name="_bottom"/>
  <anchor x="316" y="0" name="bottom"/>
  <anchor x="300" y="275" name="center"/>
  <anchor x="375" y="700" name="top"/>
  <anchor x="624" y="550" name="topright"/>
  <outline>
    <contour>
      <point x="250" y="-225" type="line"/>
      <point x="360" y="-225" type="line" smooth="yes"/>
      <point x="444" y="-225"/>
      <point x="500" y="-182"/>
      <point x="500" y="-133" type="curve" smooth="yes"/>
      <point x="500" y="-72"/>
      <point x="419" y="-43"/>
      <point x="358" y="-39" type="curve"/>
      <point x="377" y="16" type="line"/>
      <point x="304" y="16" type="line"/>
      <point x="269" y="-69" type="line"/>
      <point x="342" y="-69"/>
      <point x="385" y="-88"/>
      <point x="385" y="-119" type="curve" smooth="yes"/>
      <point x="385" y="-135"/>
      <point x="363" y="-155"/>
      <point x="330" y="-155" type="curve" smooth="yes"/>
      <point x="250" y="-155" type="line"/>
    </contour>
    <component base="t"/>
  </outline>
</glyph>
<glyph name="tcaron" format="2">
  <advance width="600"/>
  <unicode hex="0165"/>
  <anchor x="316" y="0" name="bottom"/>
  <anchor x="300" y="275" name="center"/>
  <anchor x="375" y="700" name="top"/>
  <anchor x="624" y="550" name="topright"/>
  <outline>
    <contour>
      <point x="430" y="620" type="line"/>
      <point x="548" y="620" type="line"/>
      <point x="663" y="775" type="line"/>
      <point x="535" y="775" type="line"/>
    </contour>
    <component base="t"/>
  </outline>
</glyph>
<glyph name="florin" format="2">
  <advance width="600"/>
  <unicode hex="0192"/>
  <outline>
    <contour>
      <point x="-73" y="-180" type="line"/>
      <point x="42" y="-180" type="line" smooth="yes"/>
      <point x="183" y="-180"/>
      <point x="296" y="-96"/>
      <point x="315" y="25" type="curve" smooth="yes"/>
      <point x="356" y="285" type="line"/>
      <point x="561" y="285" type="line"/>
      <point x="582" y="415" type="line"/>
      <point x="377" y="415" type="line"/>
      <point x="399" y="555" type="line" smooth="yes"/>
      <point x="403" y="583"/>
      <point x="424" y="600"/>
      <point x="451" y="600" type="curve" smooth="yes"/>
      <point x="606" y="600" type="line"/>
      <point x="627" y="730" type="line"/>
      <point x="452" y="730" type="line" smooth="yes"/>
      <point x="346" y="730"/>
      <point x="266" y="661"/>
      <point x="249" y="555" type="curve" smooth="yes"/>
      <point x="227" y="415" type="line"/>
      <point x="72" y="415" type="line"/>
      <point x="51" y="285" type="line"/>
      <point x="206" y="285" type="line"/>
      <point x="167" y="41" type="line" smooth="yes"/>
      <point x="160" y="-7"/>
      <point x="126" y="-35"/>
      <point x="75" y="-35" type="curve" smooth="yes"/>
      <point x="-50" y="-35" type="line"/>
    </contour>
  </outline>
</glyph>
<glyph name="Uhorn" format="2">
  <advance width="600"/>
  <unicode hex="01AF"/>
  <anchor x="372" y="730" name="top"/>
  <anchor x="256" y="0" name="bottom"/>
  <anchor x="457" y="730" name="horn"/>
  <anchor x="305" y="0" name="ogonek"/>
  <anchor x="652" y="730" name="topright"/>
  <outline>
    <contour>
      <point x="502" y="630" type="line"/>
      <point x="562" y="630" type="line" smooth="yes"/>
      <point x="649" y="630"/>
      <point x="715" y="684"/>
      <point x="728" y="765" type="curve" smooth="yes"/>
      <point x="740" y="840" type="line"/>
      <point x="620" y="840" type="line"/>
      <point x="608" y="765" type="line" smooth="yes"/>
      <point x="605" y="743"/>
      <point x="590" y="730"/>
      <point x="568" y="730" type="curve" smooth="yes"/>
      <point x="518" y="730" type="line"/>
    </contour>
    <component base="U"/>
  </outline>
</glyph>
<glyph name="Oogonek" format="2">
  <advance width="600"/>
  <unicode hex="01EA"/>
  <anchor x="387" y="700" name="horn"/>
  <anchor x="372" y="730" name="top"/>
  <outline>
    <contour>
      <point x="275" y="-225" type="curve" smooth="yes"/>
      <point x="383" y="-225" type="line"/>
      <point x="400" y="-120" type="line"/>
      <point x="331" y="-120" type="line" smooth="yes"/>
      <point x="302" y="-120"/>
      <point x="288" y="-103"/>
      <point x="291" y="-82" type="curve" smooth="yes"/>
      <point x="294" y="-65"/>
      <point x="310" y="-38"/>
      <point x="340" y="-17" type="curve" smooth="yes"/>
      <point x="394" y="21" type="line"/>
      <point x="464" y="58"/>
      <point x="517" y="127"/>
      <point x="530" y="210" type="curve" smooth="yes"/>
      <point x="579" y="520" type="line" smooth="yes"/>
      <point x="600" y="652"/>
      <point x="521" y="740"/>
      <point x="374" y="740" type="curve" smooth="yes"/>
      <point x="227" y="740"/>
      <point x="120" y="652"/>
      <point x="99" y="520" type="curve" smooth="yes"/>
      <point x="50" y="210" type="line" smooth="yes"/>
      <point x="29" y="78"/>
      <point x="108" y="-10"/>
      <point x="255" y="-10" type="curve" smooth="yes"/>
      <point x="288" y="-10"/>
      <point x="307" y="11"/>
      <point x="308" y="21" type="curve"/>
      <point x="236" y="-9"/>
      <point x="169" y="-68"/>
      <point x="162" y="-115" type="curve" smooth="yes"/>
      <point x="151" y="-180"/>
      <point x="194" y="-225"/>
    </contour>
    <contour>
      <point x="276" y="120" type="curve" smooth="yes"/>
      <point x="216" y="120"/>
      <point x="191" y="152"/>
      <point x="200" y="210" type="curve" smooth="yes"/>
      <point x="249" y="520" type="line" smooth="yes"/>
      <point x="259" y="578"/>
      <point x="293" y="610"/>
      <point x="354" y="610" type="curve" smooth="yes"/>
      <point x="415" y="610"/>
      <point x="439" y="578"/>
      <point x="429" y="520" type="curve" smooth="yes"/>
      <point x="380" y="210" type="line" smooth="yes"/>
      <point x="371" y="152"/>
      <point x="336" y="120"/>
    </contour>
  </outline>
</glyph>
<glyph name="circumflexcomb" format="2">
  <unicode hex="0302"/>
  <anchor x="-256" y="550" name="_top"/>
  <anchor x="-219" y="785" name="top"/>
  <outline>
    <contour>
      <point x="-446" y="645" type="line"/>
      <point x="-307" y="645" type="line"/>
      <point x="-229" y="715" type="line"/>
      <point x="-168" y="645" type="line"/>
      <point x="-36" y="645" type="line"/>
      <point x="-149" y="785" type="line"/>
      <point x="-289" y="785" type="line"/>
    </contour>
  </outline>
</glyph>
<glyph name="tildecomb" format="2">
  <unicode hex="0303"/>
  <anchor x="-257" y="550" name="_top"/>
  <anchor x="-218" y="795" name="top"/>
  <outline>
    <contour>
      <point x="-173" y="635" type="curve" smooth="yes"/>
      <point x="-107" y="635"/>
      <point x="-55" y="686"/>
      <point x="-44" y="755" type="curve" smooth="yes"/>
      <point x="-39" y="790" type="line"/>
      <point x="-124" y="790" type="line"/>
      <point x="-128" y="763" type="line" smooth="yes"/>
      <point x="-131" y="746"/>
      <point x="-145" y="735"/>
      <point x="-163" y="735" type="curve" smooth="yes"/>
      <point x="-203" y="735"/>
      <point x="-203" y="795"/>
      <point x="-288" y="795" type="curve" smooth="yes"/>
      <point x="-354" y="795"/>
      <point x="-406" y="744"/>
      <point x="-417" y="675" type="curve" smooth="yes"/>
      <point x="-423" y="640" type="line"/>
      <point x="-338" y="640" type="line"/>
      <point x="-334" y="662" type="line" smooth="yes"/>
      <point x="-331" y="682"/>
      <point x="-317" y="695"/>
      <point x="-299" y="695" type="curve" smooth="yes"/>
      <point x="-259" y="695"/>
      <point x="-258" y="635"/>
    </contour>
  </outline>
</glyph>
<glyph name="macroncomb" format="2">
  <unicode hex="0304"/>
  <anchor x="-257" y="550" name="_top"/>
  <anchor x="-223" y="765" name="top"/>
  <outline>
    <contour>
      <point x="-420" y="655" type="line"/>
      <point x="-60" y="655" type="line"/>
      <point x="-43" y="765" type="line"/>
      <point x="-403" y="765" type="line"/>
    </contour>
  </outline>
</glyph>
<glyph name="dotaccentcomb" format="2">
  <unicode hex="0307"/>
  <anchor x="-257" y="550" name="_top"/>
  <anchor x="-219" y="793" name="top"/>
  <outline>
    <contour>
      <point x="-243" y="637" type="curve" smooth="yes"/>
      <point x="-188" y="637"/>
      <point x="-148" y="667"/>
      <point x="-141" y="715" type="curve" smooth="yes"/>
      <point x="-133" y="763"/>
      <point x="-163" y="793"/>
      <point x="-218" y="793" type="curve" smooth="yes"/>
      <point x="-273" y="793"/>
      <point x="-313" y="763"/>
      <point x="-321" y="715" type="curve" smooth="yes"/>
      <point x="-328" y="667"/>
      <point x="-298" y="637"/>
    </contour>
  </outline>
</glyph>
<glyph name="cedillacomb" format="2">
  <unicode hex="0327"/>
  <anchor x="-344" y="0" name="_bottom"/>
  <anchor x="-365" y="-225" name="bottom"/>
  <outline>
    <contour>
      <point x="-490" y="-225" type="line"/>
      <point x="-380" y="-225" type="line" smooth="yes"/>
      <point x="-296" y="-225"/>
      <point x="-233" y="-182"/>
      <point x="-225" y="-133" type="curve" smooth="yes"/>
      <point x="-215" y="-72"/>
      <point x="-292" y="-43"/>
      <point x="-352" y="-39" type="curve"/>
      <point x="-324" y="16" type="line"/>
      <point x="-397" y="16" type="line"/>
      <point x="-446" y="-69" type="line"/>
      <point x="-373" y="-69"/>
      <point x="-333" y="-88"/>
      <point x="-338" y="-119" type="curve" smooth="yes"/>
      <point x="-340" y="-135"/>
      <point x="-366" y="-155"/>
      <point x="-399" y="-155" type="curve" smooth="yes"/>
      <point x="-479" y="-155" type="line"/>
    </contour>
  </outline>
</glyph>
<glyph name="ogonekcomb" format="2">
  <unicode hex="0328"/>
  <anchor x="-344" y="0" name="_ogonek"/>
  <outline>
    <contour>
      <point x="-384" y="-225" type="curve" smooth="yes"/>
      <point x="-276" y="-225" type="line"/>
      <point x="-259" y="-120" type="line"/>
      <point x="-328" y="-120" type="line" smooth="yes"/>
      <point x="-357" y="-120"/>
      <point x="-371" y="-103"/>
      <point x="-368" y="-83" type="curve" smooth="yes"/>
      <point x="-365" y="-66"/>
      <point x="-347" y="-42"/>
      <point x="-317" y="-18" type="curve" smooth="yes"/>
      <point x="-280" y="11" type="line"/>
      <point x="-366" y="11" type="line"/>
      <point x="-439" y="-19"/>
      <point x="-490" y="-68"/>
      <point x="-497" y="-115" type="curve" smooth="yes"/>
      <point x="-508" y="-180"/>
      <point x="-465" y="-225"/>
    </contour>
  </outline>
</glyph>
<glyph name="strokelongcomb" format="2">
  <unicode hex="0336"/>
  <anchor x="-294" y="316" name="_center"/>
  <outline>
    <contour>
      <point x="-633" y="260" type="line"/>
      <point x="27" y="260" type="line"/>
      <point x="45" y="371" type="line"/>
      <point x="-615" y="371" type="line"/>
    </contour>
  </outline>
</glyph>
<glyph name="slashlongcomb" format="2">
  <unicode hex="0338"/>
  <anchor x="-300" y="275" name="_center"/>
  <outline>
    <contour>
      <point x="-556" y="-110" type="line"/>
      <point x="-461" y="-110" type="line"/>
      <point x="-44" y="660" type="line"/>
      <point x="-139" y="660" type="line"/>
    </contour>
  </outline>
</glyph>
<glyph name="Psi" format="2">
  <advance width="600"/>
  <unicode hex="03A8"/>
  <outline>
    <contour>
      <point x="196" y="0" type="line"/>
      <point x="316" y="0" type="line"/>
      <point x="343" y="170" type="line"/>
      <point x="470" y="173"/>
      <point x="567" y="260"/>
      <point x="588" y="389" type="curve" smooth="yes"/>
      <point x="642" y="730" type="line"/>
      <point x="515" y="730" type="line"/>
      <point x="461" y="389" type="line" smooth="yes"/>
      <point x="451" y="327"/>
      <point x="408" y="286"/>
      <point x="355" y="286" type="curve"/>
      <point x="426" y="730" type="line"/>
      <point x="318" y="730" type="line"/>
      <point x="247" y="286" type="line"/>
      <point x="194" y="286"/>
      <point x="165" y="327"/>
      <point x="175" y="389" type="curve" smooth="yes"/>
      <point x="229" y="730" type="line"/>
      <point x="102" y="730" type="line"/>
      <point x="48" y="389" type="line" smooth="yes"/>
      <point x="27" y="260"/>
      <point x="96" y="173"/>
      <point x="223" y="170" type="curve"/>
    </contour>
  </outline>
</glyph>
<glyph name="delta" format="2">
  <advance width="600"/>
  <unicode hex="03B4"/>
  <outline>
    <contour>
      <point x="255" y="-10" type="curve" smooth="yes"/>
      <point x="402" y="-13"/>
      <point x="509" y="75"/>
      <point x="530" y="210" type="curve" smooth="yes"/>
      <point x="547" y="316" type="line" smooth="yes"/>
      <point x="560" y="399"/>
      <point x="538" y="449"/>
      <point x="485" y="492" type="curve" smooth="yes"/>
      <point x="339" y="610" type="line"/>
      <point x="549" y="610" type="line"/>
      <point x="568" y="730" type="line"/>
      <point x="167" y="730" type="line"/>
      <point x="149" y="620" type="line"/>
      <point x="341" y="452" type="line"/>
      <point x="334" y="445" type="line"/>
      <point x="319" y="460"/>
      <point x="287" y="490"/>
      <point x="244" y="490" type="curve" smooth="yes"/>
      <point x="154" y="490"/>
      <point x="84" y="426"/>
      <point x="66" y="310" type="curve" smooth="yes"/>
      <point x="50" y="210" type="line" smooth="yes"/>
      <point x="29" y="75"/>
      <point x="109" y="-7"/>
    </contour>
    <contour>
      <point x="276" y="120" type="curve" smooth="yes"/>
      <point x="219" y="120"/>
      <point x="191" y="153"/>
      <point x="200" y="210" type="curve" smooth="yes"/>
      <point x="217" y="316" type="line" smooth="yes"/>
      <point x="226" y="373"/>
      <point x="264" y="406"/>
      <point x="321" y="406" type="curve" smooth="yes"/>
      <point x="378" y="406"/>
      <point x="406" y="373"/>
      <point x="397" y="316" type="curve" smooth="yes"/>
      <point x="380" y="210" type="line" smooth="yes"/>
      <point x="371" y="153"/>
      <point x="333" y="120"/>
    </contour>
  </outline>
</glyph>
<glyph name="epsilon" format="2">
  <advance width="600"/>
  <unicode hex="03B5"/>
  <outline>
    <contour>
      <point x="284" y="-7" type="line" smooth="yes"/>
      <point x="407" y="-7"/>
      <point x="504" y="57"/>
      <point x="537" y="160" type="curve"/>
      <point x="392" y="160" type="line"/>
      <point x="378" y="129"/>
      <point x="343" y="110"/>
      <point x="302" y="110" type="curve" smooth="yes"/>
      <point x="245" y="110" type="line" smooth="yes"/>
      <point x="201" y="110"/>
      <point x="178" y="132"/>
      <point x="184" y="168" type="curve" smooth="yes"/>
      <point x="189" y="203"/>
      <point x="219" y="224"/>
      <point x="263" y="224" type="curve" smooth="yes"/>
      <point x="392" y="224" type="line"/>
      <point x="411" y="338" type="line"/>
      <point x="288" y="338" type="line" smooth="yes"/>
      <point x="247" y="338"/>
      <point x="226" y="357"/>
      <point x="231" y="389" type="curve" smooth="yes"/>
      <point x="236" y="422"/>
      <point x="262" y="440"/>
      <point x="304" y="440" type="curve" smooth="yes"/>
      <point x="350" y="440" type="line" smooth="yes"/>
      <point x="391" y="440"/>
      <point x="418" y="421"/>
      <point x="422" y="390" type="curve"/>
      <point x="567" y="390" type="line"/>
      <point x="566" y="493"/>
      <point x="491" y="557"/>
      <point x="368" y="557" type="curve" smooth="yes"/>
      <point x="322" y="557" type="line" smooth="yes"/>
      <point x="191" y="557"/>
      <point x="99" y="499"/>
      <point x="84" y="407" type="curve" smooth="yes"/>
      <point x="73" y="333"/>
      <point x="125" y="284"/>
      <point x="216" y="284" type="curve"/>
      <point x="218" y="294" type="line"/>
      <point x="120" y="294"/>
      <point x="45" y="239"/>
      <point x="32" y="157" type="curve" smooth="yes"/>
      <point x="16" y="57"/>
      <point x="92" y="-7"/>
      <point x="227" y="-7" type="curve" smooth="yes"/>
    </contour>
  </outline>
</glyph>
<glyph name="theta" format="2">
  <advance width="600"/>
  <unicode hex="03B8"/>
  <outline>
    <contour>
      <point x="254" y="-10" type="curve" smooth="yes"/>
      <point x="401" y="-10"/>
      <point x="508" y="78"/>
      <point x="529" y="210" type="curve" smooth="yes"/>
      <point x="577" y="510" type="line" smooth="yes"/>
      <point x="598" y="642"/>
      <point x="519" y="730"/>
      <point x="372" y="730" type="curve" smooth="yes"/>
      <point x="225" y="730"/>
      <point x="118" y="642"/>
      <point x="97" y="510" type="curve" smooth="yes"/>
      <point x="49" y="210" type="line" smooth="yes"/>
      <point x="28" y="78"/>
      <point x="107" y="-10"/>
    </contour>
    <contour>
      <point x="275" y="120" type="curve" smooth="yes"/>
      <point x="217" y="120"/>
      <point x="190" y="152"/>
      <point x="199" y="210" type="curve" smooth="yes"/>
      <point x="214" y="304" type="line"/>
      <point x="394" y="304" type="line"/>
      <point x="379" y="210" type="line" smooth="yes"/>
      <point x="370" y="152"/>
      <point x="333" y="120"/>
    </contour>
    <contour>
      <point x="234" y="429" type="line"/>
      <point x="247" y="510" type="line" smooth="yes"/>
      <point x="256" y="568"/>
      <point x="293" y="600"/>
      <point x="351" y="600" type="curve" smooth="yes"/>
      <point x="409" y="600"/>
      <point x="436" y="568"/>
      <point x="427" y="510" type="curve" smooth="yes"/>
      <point x="414" y="429" type="line"/>
    </contour>
  </outline>
</glyph>
<glyph name="iota" format="2">
  <advance width="600"/>
  <unicode hex="03B9"/>
  <anchor x="344" y="550" name="top"/>
  <outline>
    <contour>
      <point x="375" y="0" type="curve" smooth="yes"/>
      <point x="516" y="0" type="line"/>
      <point x="537" y="135" type="line"/>
      <point x="411" y="135" type="line" smooth="yes"/>
      <point x="375" y="135"/>
      <point x="355" y="159"/>
      <point x="361" y="195" type="curve" smooth="yes"/>
      <point x="417" y="550" type="line"/>
      <point x="83" y="550" type="line"/>
      <point x="62" y="415" type="line"/>
      <point x="246" y="415" type="line"/>
      <point x="211" y="195" type="line" smooth="yes"/>
      <point x="192" y="78"/>
      <point x="258" y="0"/>
    </contour>
  </outline>
</glyph>
<glyph name="mu" format="2">
  <advance width="600"/>
  <unicode hex="03BC"/>
  <outline>
    <contour>
      <point x="-6" y="-180" type="line"/>
      <point x="144" y="-180" type="line"/>
      <point x="168" y="-30" type="line"/>
      <point x="185" y="105" type="line"/>
      <point x="220" y="105" type="line"/>
      <point x="190" y="140" type="line"/>
      <point x="175" y="47"/>
      <point x="201" y="-10"/>
      <point x="258" y="-10" type="curve" smooth="yes"/>
      <point x="315" y="-10"/>
      <point x="359" y="47"/>
      <point x="374" y="140" type="curve"/>
      <point x="334" y="105" type="line"/>
      <point x="369" y="105" type="line"/>
      <point x="347" y="0" type="line"/>
      <point x="497" y="0" type="line"/>
      <point x="584" y="550" type="line"/>
      <point x="434" y="550" type="line"/>
      <point x="380" y="210" type="line" smooth="yes"/>
      <point x="371" y="153"/>
      <point x="334" y="120"/>
      <point x="279" y="120" type="curve" smooth="yes"/>
      <point x="224" y="120"/>
      <point x="197" y="153"/>
      <point x="206" y="210" type="curve" smooth="yes"/>
      <point x="260" y="550" type="line"/>
      <point x="110" y="550" type="line"/>
    </contour>
  </outline>
</glyph>
<glyph name="xi" format="2">
  <advance width="600"/>
  <unicode hex="03BE"/>
  <outline>
    <contour>
      <point x="342" y="-180" type="line"/>
      <point x="492" y="-180" type="line"/>
      <point x="516" y="-34" type="line" smooth="yes"/>
      <point x="532" y="70"/>
      <point x="478" y="135"/>
      <point x="376" y="135" type="curve" smooth="yes"/>
      <point x="295" y="135" type="line" smooth="yes"/>
      <point x="232" y="135"/>
      <point x="198" y="171"/>
      <point x="207" y="228" type="curve" smooth="yes"/>
      <point x="216" y="285"/>
      <point x="262" y="320"/>
      <point x="325" y="320" type="curve" smooth="yes"/>
      <point x="487" y="320" type="line"/>
      <point x="507" y="450" type="line"/>
      <point x="327" y="450" type="line" smooth="yes"/>
      <point x="277" y="450"/>
      <point x="251" y="478"/>
      <point x="258" y="522" type="curve" smooth="yes"/>
      <point x="265" y="567"/>
      <point x="300" y="595"/>
      <point x="350" y="595" type="curve" smooth="yes"/>
      <point x="564" y="595" type="line"/>
      <point x="586" y="730" type="line"/>
      <point x="379" y="730" type="line" smooth="yes"/>
      <point x="238" y="730"/>
      <point x="139" y="661"/>
      <point x="121" y="552" type="curve" smooth="yes"/>
      <point x="105" y="451"/>
      <point x="168" y="388"/>
      <point x="285" y="388" type="curve"/>
      <point x="288" y="404" type="line"/>
      <point x="163" y="404"/>
      <point x="73" y="331"/>
      <point x="55" y="215" type="curve" smooth="yes"/>
      <point x="34" y="83"/>
      <point x="117" y="0"/>
      <point x="269" y="0" type="curve" smooth="yes"/>
      <point x="317" y="0" type="line" smooth="yes"/>
      <point x="350" y="0"/>
      <point x="368" y="-21"/>
      <point x="362" y="-54" type="curve" smooth="yes"/>
    </contour>
  </outline>
</glyph>
<glyph name="pi" format="2">
  <advance width="600"/>
  <unicode hex="03C0"/>
  <outline>
    <contour>
      <point x="493" y="-5" type="curve" smooth="yes"/>
      <point x="531" y="-5" type="line"/>
      <point x="553" y="130" type="line"/>
      <point x="529" y="130" type="line" smooth="yes"/>
      <point x="490" y="130"/>
      <point x="469" y="155"/>
      <point x="475" y="195" type="curve" smooth="yes"/>
      <point x="511" y="422" type="line"/>
      <point x="598" y="422" type="line"/>
      <point x="618" y="550" type="line"/>
      <point x="54" y="550" type="line"/>
      <point x="34" y="422" type="line"/>
      <point x="107" y="422" type="line"/>
      <point x="40" y="0" type="line"/>
      <point x="185" y="0" type="line"/>
      <point x="252" y="422" type="line"/>
      <point x="366" y="422" type="line"/>
      <point x="329" y="190" type="line" smooth="yes"/>
      <point x="310" y="70"/>
      <point x="373" y="-5"/>
    </contour>
  </outline>
</glyph>
<glyph name="sigmafinal" format="2">
  <advance width="600"/>
  <unicode hex="03C2"/>
  <outline>
    <contour>
      <point x="359" y="-180" type="line"/>
      <point x="509" y="-180" type="line"/>
      <point x="533" y="-34" type="line" smooth="yes"/>
      <point x="549" y="70"/>
      <point x="499" y="130"/>
      <point x="393" y="130" type="curve" smooth="yes"/>
      <point x="281" y="130" type="line" smooth="yes"/>
      <point x="221" y="130"/>
      <point x="193" y="162"/>
      <point x="202" y="220" type="curve" smooth="yes"/>
      <point x="221" y="340" type="line" smooth="yes"/>
      <point x="230" y="398"/>
      <point x="268" y="430"/>
      <point x="328" y="430" type="curve" smooth="yes"/>
      <point x="382" y="430"/>
      <point x="413" y="402"/>
      <point x="409" y="355" type="curve"/>
      <point x="559" y="355" type="line"/>
      <point x="574" y="482"/>
      <point x="494" y="560"/>
      <point x="349" y="560" type="curve" smooth="yes"/>
      <point x="202" y="560"/>
      <point x="92" y="473"/>
      <point x="71" y="340" type="curve" smooth="yes"/>
      <point x="52" y="220" type="line" smooth="yes"/>
      <point x="31" y="87"/>
      <point x="113" y="0"/>
      <point x="260" y="0" type="curve" smooth="yes"/>
      <point x="334" y="0" type="line" smooth="yes"/>
      <point x="368" y="0"/>
      <point x="385" y="-20"/>
      <point x="379" y="-54" type="curve" smooth="yes"/>
    </contour>
  </outline>
</glyph>
<glyph name="phi" format="2">
  <advance width="600"/>
  <unicode hex="03C6"/>
  <outline>
    <contour>
      <point x="166" y="-180" type="line"/>
      <point x="288" y="-180" type="line"/>
      <point x="317" y="0" type="line"/>
      <point x="439" y="0"/>
      <point x="529" y="80"/>
      <point x="549" y="207" type="curve" smooth="yes"/>
      <point x="574" y="364" type="line" smooth="yes"/>
      <point x="592" y="478"/>
      <point x="531" y="550"/>
      <point x="417" y="550" type="curve" smooth="yes"/>
      <point x="291" y="550" type="line"/>
      <point x="222" y="115" type="line"/>
      <point x="170" y="115"/>
      <point x="143" y="151"/>
      <point x="152" y="207" type="curve" smooth="yes"/>
      <point x="206" y="550" type="line"/>
      <point x="83" y="550" type="line"/>
      <point x="29" y="207" type="line" smooth="yes"/>
      <point x="9" y="80"/>
      <point x="73" y="0"/>
      <point x="195" y="0" type="curve"/>
    </contour>
    <contour>
      <point x="326" y="115" type="curve"/>
      <point x="377" y="435" type="line"/>
      <point x="393" y="435" type="line" smooth="yes"/>
      <point x="436" y="435"/>
      <point x="458" y="409"/>
      <point x="451" y="364" type="curve" smooth="yes"/>
      <point x="426" y="207" type="line" smooth="yes"/>
      <point x="417" y="149"/>
      <point x="379" y="115"/>
    </contour>
  </outline>
</glyph>
<glyph name="psi" format="2">
  <advance width="600"/>
  <unicode hex="03C8"/>
  <outline>
    <contour>
      <point x="166" y="-180" type="line"/>
      <point x="288" y="-180" type="line"/>
      <point x="317" y="0" type="line"/>
      <point x="447" y="0"/>
      <point x="535" y="79"/>
      <point x="555" y="207" type="curve" smooth="yes"/>
      <point x="609" y="550" type="line"/>
      <point x="486" y="550" type="line"/>
      <point x="432" y="207" type="line" smooth="yes"/>
      <point x="423" y="152"/>
      <point x="380" y="118"/>
      <point x="327" y="118" type="curve"/>
      <point x="395" y="550" type="line"/>
      <point x="291" y="550" type="line"/>
      <point x="223" y="118" type="line"/>
      <point x="170" y="118"/>
      <point x="137" y="152"/>
      <point x="146" y="207" type="curve" smooth="yes"/>
      <point x="200" y="550" type="line"/>
      <point x="77" y="550" type="line"/>
      <point x="23" y="207" type="line" smooth="yes"/>
      <point x="2" y="78"/>
      <point x="65" y="0"/>
      <point x="195" y="0" type="curve"/>
    </contour>
  </outline>
</glyph>
<glyph name="KaiSymbol" format="2">
  <advance width="600"/>
  <unicode hex="03CF"/>
  <anchor x="256" y="0" name="bottom"/>
  <anchor x="372" y="730" name="top"/>
  <outline>
    <contour>
      <point x="263" y="-180" type="line"/>
      <point x="330" y="-180" type="line" smooth="yes"/>
      <point x="445" y="-180"/>
      <point x="517" y="-120"/>
      <point x="534" y="-10" type="curve" smooth="yes"/>
      <point x="552" y="100" type="line"/>
      <point x="420" y="100" type="line"/>
      <point x="404" y="0" type="line" smooth="yes"/>
      <point x="398" y="-37"/>
      <point x="377" y="-55"/>
      <point x="340" y="-55" type="curve" smooth="yes"/>
      <point x="283" y="-55" type="line"/>
    </contour>
    <component base="K"/>
  </outline>
</glyph>
<glyph name="Ii-cy" format="2">
  <advance width="600"/>
  <unicode hex="0418"/>
  <anchor x="536" y="0" name="bottomright"/>
  <anchor x="372" y="730" name="top"/>
  <outline>
    <contour>
      <point x="16" y="0" type="line"/>
      <point x="193" y="0" type="line"/>
      <point x="469" y="565" type="line"/>
      <point x="451" y="492"/>
      <point x="423" y="369"/>
      <point x="412" y="300" type="curve" smooth="yes"/>
      <point x="364" y="0" type="line"/>
      <point x="496" y="0" type="line"/>
      <point x="612" y="730" type="line"/>
      <point x="435" y="730" type="line"/>
      <point x="160" y="165" type="line"/>
      <point x="176" y="230"/>
      <point x="202" y="341"/>
      <point x="213" y="410" type="curve" smooth="yes"/>
      <point x="264" y="730" type="line"/>
      <point x="132" y="730" type="line"/>
    </contour>
  </outline>
</glyph>
<glyph name="Che-cy" format="2">
  <advance width="600"/>
  <unicode hex="0427"/>
  <outline>
    <contour>
      <point x="336" y="0" type="line"/>
      <point x="486" y="0" type="line"/>
      <point x="602" y="730" type="line"/>
      <point x="452" y="730" type="line"/>
      <point x="401" y="410" type="line"/>
      <point x="386" y="404"/>
      <point x="354" y="400"/>
      <point x="324" y="400" type="curve" smooth="yes"/>
      <point x="251" y="400"/>
      <point x="222" y="422"/>
      <point x="231" y="475" type="curve" smooth="yes"/>
      <point x="272" y="730" type="line"/>
      <point x="122" y="730" type="line"/>
      <point x="80" y="466" type="line" smooth="yes"/>
      <point x="60" y="338"/>
      <point x="127" y="265"/>
      <point x="268" y="265" type="curve" smooth="yes"/>
      <point x="313" y="265"/>
      <point x="359" y="270"/>
      <point x="380" y="276" type="curve"/>
    </contour>
  </outline>
</glyph>
<glyph name="Ereversed-cy" format="2">
  <advance width="600"/>
  <unicode hex="042D"/>
  <outline>
    <contour>
      <point x="250" y="-10" type="curve" smooth="yes"/>
      <point x="397" y="-10"/>
      <point x="508" y="78"/>
      <point x="529" y="210" type="curve" smooth="yes"/>
      <point x="578" y="520" type="line" smooth="yes"/>
      <point x="599" y="653"/>
      <point x="516" y="740"/>
      <point x="369" y="740" type="curve" smooth="yes"/>
      <point x="222" y="740"/>
      <point x="111" y="653"/>
      <point x="90" y="520" type="curve"/>
      <point x="240" y="520" type="line"/>
      <point x="250" y="578"/>
      <point x="289" y="610"/>
      <point x="349" y="610" type="curve" smooth="yes"/>
      <point x="409" y="610"/>
      <point x="438" y="578"/>
      <point x="428" y="520" type="curve" smooth="yes"/>
      <point x="415" y="435" type="line"/>
      <point x="210" y="435" type="line"/>
      <point x="189" y="300" type="line"/>
      <point x="394" y="300" type="line"/>
      <point x="379" y="210" type="line" smooth="yes"/>
      <point x="370" y="152"/>
      <point x="331" y="120"/>
      <point x="271" y="120" type="curve" smooth="yes"/>
      <point x="211" y="120"/>
      <point x="182" y="152"/>
      <point x="191" y="210" type="curve"/>
      <point x="41" y="210" type="line"/>
      <point x="20" y="77"/>
      <point x="103" y="-10"/>
    </contour>
  </outline>
</glyph>
<glyph name="Ia-cy" format="2">
  <advance width="600"/>
  <unicode hex="042F"/>
  <outline>
    <contour>
      <point x="-7" y="0" type="line"/>
      <point x="149" y="0" type="line"/>
      <point x="315" y="276" type="line"/>
      <point x="385" y="276" type="line"/>
      <point x="341" y="0" type="line"/>
      <point x="490" y="0" type="line"/>
      <point x="606" y="730" type="line"/>
      <point x="372" y="730" type="line" smooth="yes"/>
      <point x="217" y="730"/>
      <point x="103" y="644"/>
      <point x="81" y="508" type="curve" smooth="yes"/>
      <point x="64" y="396"/>
      <point x="117" y="304"/>
      <point x="217" y="288" type="curve"/>
      <point x="218" y="362" type="line"/>
    </contour>
    <contour>
      <point x="320" y="406" type="line" smooth="yes"/>
      <point x="254" y="406"/>
      <point x="221" y="441"/>
      <point x="230" y="501" type="curve" smooth="yes"/>
      <point x="240" y="563"/>
      <point x="285" y="600"/>
      <point x="351" y="600" type="curve" smooth="yes"/>
      <point x="436" y="600" type="line"/>
      <point x="405" y="406" type="line"/>
    </contour>
  </outline>
</glyph>
<glyph name="ge-cy" format="2">
  <advance width="600"/>
  <unicode hex="0433"/>
  <anchor x="266" y="0" name="bottom"/>
  <anchor x="373" y="550" name="top"/>
  <outline>
    <contour>
      <point x="278" y="-10" type="line" smooth="yes"/>
      <point x="414" y="-10"/>
      <point x="516" y="58"/>
      <point x="532" y="160" type="curve"/>
      <point x="382" y="160" type="line"/>
      <point x="377" y="128"/>
      <point x="342" y="107"/>
      <point x="296" y="107" type="curve" smooth="yes"/>
      <point x="252" y="107" type="line" smooth="yes"/>
      <point x="197" y="107"/>
      <point x="172" y="128"/>
      <point x="177" y="164" type="curve" smooth="yes"/>
      <point x="183" y="197"/>
      <point x="210" y="214"/>
      <point x="264" y="221" type="curve" smooth="yes"/>
      <point x="330" y="229" type="line" smooth="yes"/>
      <point x="469" y="246"/>
      <point x="536" y="290"/>
      <point x="552" y="392" type="curve" smooth="yes"/>
      <point x="569" y="499"/>
      <point x="504" y="560"/>
      <point x="363" y="560" type="curve" smooth="yes"/>
      <point x="325" y="560" type="line" smooth="yes"/>
      <point x="191" y="560"/>
      <point x="93" y="496"/>
      <point x="78" y="398" type="curve"/>
      <point x="228" y="398" type="line"/>
      <point x="233" y="425"/>
      <point x="263" y="443"/>
      <point x="306" y="443" type="curve" smooth="yes"/>
      <point x="344" y="443" type="line" smooth="yes"/>
      <point x="394" y="443"/>
      <point x="413" y="426"/>
      <point x="408" y="393" type="curve" smooth="yes"/>
      <point x="403" y="362"/>
      <point x="381" y="347"/>
      <point x="334" y="341" type="curve" smooth="yes"/>
      <point x="263" y="332" type="line" smooth="yes"/>
      <point x="122" y="314"/>
      <point x="49" y="267"/>
      <point x="32" y="164" type="curve" smooth="yes"/>
      <point x="15" y="52"/>
      <point x="84" y="-10"/>
      <point x="234" y="-10" type="curve" smooth="yes"/>
    </contour>
  </outline>
</glyph>
<glyph name="ka-cy" format="2">
  <advance width="600"/>
  <unicode hex="043A"/>
  <anchor x="343" y="550" name="top"/>
  <outline>
    <contour>
      <point x="25" y="0" type="line"/>
      <point x="175" y="0" type="line"/>
      <point x="209" y="216" type="line"/>
      <point x="286" y="216" type="line"/>
      <point x="368" y="0" type="line"/>
      <point x="534" y="0" type="line"/>
      <point x="421" y="276" type="line"/>
      <point x="618" y="550" type="line"/>
      <point x="448" y="550" type="line"/>
      <point x="300" y="342" type="line"/>
      <point x="229" y="342" type="line"/>
      <point x="262" y="550" type="line"/>
      <point x="112" y="550" type="line"/>
    </contour>
  </outline>
</glyph>
<glyph name="em-cy" format="2">
  <advance width="600"/>
  <unicode hex="043C"/>
  <outline>
    <contour>
      <point x="-2" y="0" type="line"/>
      <point x="135" y="0" type="line"/>
      <point x="151" y="100" type="line" smooth="yes"/>
      <point x="166" y="195"/>
      <point x="178" y="338"/>
      <point x="183" y="420" type="curve"/>
      <point x="218" y="155" type="line"/>
      <point x="345" y="155" type="line"/>
      <point x="460" y="420" type="line"/>
      <point x="439" y="334"/>
      <point x="407" y="188"/>
      <point x="393" y="100" type="curve" smooth="yes"/>
      <point x="377" y="0" type="line"/>
      <point x="514" y="0" type="line"/>
      <point x="601" y="550" type="line"/>
      <point x="430" y="550" type="line"/>
      <point x="334" y="345" type="line" smooth="yes"/>
      <point x="312" y="298"/>
      <point x="300" y="257"/>
      <point x="295" y="239" type="curve"/>
      <point x="296" y="257"/>
      <point x="293" y="298"/>
      <point x="285" y="345" type="curve" smooth="yes"/>
      <point x="252" y="550" type="line"/>
      <point x="85" y="550" type="line"/>
    </contour>
  </outline>
</glyph>
<glyph name="ef-cy" format="2">
  <advance width="600"/>
  <unicode hex="0444"/>
  <outline>
    <contour>
      <point x="221" y="118" type="line"/>
      <point x="169" y="118"/>
      <point x="142" y="151"/>
      <point x="151" y="207" type="curve" smooth="yes"/>
      <point x="172" y="344" type="line" smooth="yes"/>
      <point x="181" y="400"/>
      <point x="219" y="433"/>
      <point x="271" y="433" type="curve"/>
    </contour>
    <contour>
      <point x="329" y="118" type="curve"/>
      <point x="379" y="433" type="line"/>
      <point x="431" y="433"/>
      <point x="457" y="400"/>
      <point x="448" y="344" type="curve" smooth="yes"/>
      <point x="427" y="207" type="line" smooth="yes"/>
      <point x="418" y="151"/>
      <point x="381" y="118"/>
    </contour>
    <contour>
      <point x="192" y="-19" type="line" smooth="yes"/>
      <point x="188" y="-45"/>
      <point x="169" y="-60"/>
      <point x="141" y="-60" type="curve" smooth="yes"/>
      <point x="-3" y="-60" type="line"/>
      <point x="-23" y="-180" type="line"/>
      <point x="98" y="-180" type="line" smooth="yes"/>
      <point x="215" y="-180"/>
      <point x="298" y="-120"/>
      <point x="313" y="-25" type="curve" smooth="yes"/>
      <point x="317" y="0" type="line"/>
      <point x="443" y="0"/>
      <point x="534" y="79"/>
      <point x="554" y="207" type="curve" smooth="yes"/>
      <point x="575" y="344" type="line" smooth="yes"/>
      <point x="594" y="470"/>
      <point x="531" y="550"/>
      <point x="404" y="550" type="curve"/>
      <point x="407" y="569" type="line" smooth="yes"/>
      <point x="411" y="595"/>
      <point x="430" y="610"/>
      <point x="458" y="610" type="curve" smooth="yes"/>
      <point x="602" y="610" type="line"/>
      <point x="622" y="730" type="line"/>
      <point x="501" y="730" type="line" smooth="yes"/>
      <point x="384" y="730"/>
      <point x="301" y="670"/>
      <point x="286" y="575" type="curve" smooth="yes"/>
      <point x="282" y="550" type="line"/>
      <point x="156" y="550"/>
      <point x="64" y="471"/>
      <point x="45" y="344" type="curve" smooth="yes"/>
      <point x="24" y="207" type="line" smooth="yes"/>
      <point x="4" y="79"/>
      <point x="68" y="0"/>
      <point x="195" y="0" type="curve"/>
    </contour>
  </outline>
</glyph>
<glyph name="che-cy" format="2">
  <advance width="600"/>
  <unicode hex="0447"/>
  <outline>
    <contour>
      <point x="336" y="0" type="line"/>
      <point x="486" y="0" type="line"/>
      <point x="573" y="550" type="line"/>
      <point x="423" y="550" type="line"/>
      <point x="385" y="310" type="line"/>
      <point x="366" y="304"/>
      <point x="334" y="300"/>
      <point x="304" y="300" type="curve" smooth="yes"/>
      <point x="234" y="300"/>
      <point x="207" y="324"/>
      <point x="216" y="380" type="curve" smooth="yes"/>
      <point x="243" y="550" type="line"/>
      <point x="93" y="550" type="line"/>
      <point x="65" y="370" type="line" smooth="yes"/>
      <point x="44" y="236"/>
      <point x="110" y="165"/>
      <point x="260" y="165" type="curve" smooth="yes"/>
      <point x="300" y="165"/>
      <point x="339" y="169"/>
      <point x="364" y="175" type="curve"/>
    </contour>
  </outline>
</glyph>
<glyph name="Ghestroke-cy" format="2">
  <advance width="600"/>
  <unicode hex="0492"/>
  <anchor x="556" y="0" name="bottomright"/>
  <anchor x="392" y="730" name="top"/>
  <outline>
    <contour>
      <point x="34" y="305" type="line"/>
      <point x="394" y="305" type="line"/>
      <point x="414" y="430" type="line"/>
      <point x="54" y="430" type="line"/>
    </contour>
    <component base="Ge-cy"/>
  </outline>
</glyph>
<glyph name="ghestroke-cy" format="2">
  <advance width="600"/>
  <unicode hex="0493"/>
  <anchor x="373" y="550" name="top"/>
  <outline>
    <contour>
      <point x="86" y="0" type="line"/>
      <point x="236" y="0" type="line"/>
      <point x="265" y="185" type="line"/>
      <point x="410" y="185" type="line"/>
      <point x="430" y="310" type="line"/>
      <point x="285" y="310" type="line"/>
      <point x="301" y="410" type="line"/>
      <point x="571" y="410" type="line"/>
      <point x="593" y="550" type="line"/>
      <point x="173" y="550" type="line"/>
      <point x="135" y="310" type="line"/>
      <point x="50" y="310" type="line"/>
      <point x="30" y="185" type="line"/>
      <point x="115" y="185" type="line"/>
    </contour>
  </outline>
</glyph>
<glyph name="emdash" format="2">
  <advance width="600"/>
  <unicode hex="2014"/>
  <outline>
    <contour>
      <point x="-2" y="260" type="line"/>
      <point x="598" y="260" type="line"/>
      <point x="620" y="400" type="line"/>
      <point x="20" y="400" type="line"/>
    </contour>
  </outline>
</glyph>
<glyph name="quotesinglbase" format="2">
  <advance width="600"/>
  <unicode hex="201A"/>
  <outline>
    <contour>
      <point x="134" y="-160" type="curve"/>
      <point x="279" y="-160" type="line"/>
      <point x="331" y="-91"/>
      <point x="369" y="-34"/>
      <point x="369" y="35" type="curve" smooth="yes"/>
      <point x="369" y="115"/>
      <point x="317" y="159"/>
      <point x="221" y="159" type="curve" smooth="yes"/>
      <point x="176" y="159" type="line"/>
      <point x="156" y="29" type="line"/>
      <point x="191" y="29" type="line" smooth="yes"/>
      <point x="217" y="29"/>
      <point x="230" y="18"/>
      <point x="230" y="-2" type="curve" smooth="yes"/>
      <point x="230" y="-32"/>
      <point x="211" y="-60"/>
    </contour>
  </outline>
</glyph>
<glyph name="guilsinglleft" format="2">
  <advance width="600"/>
  <unicode hex="2039"/>
  <outline>
    <contour>
      <point x="272" y="40" type="line"/>
      <point x="422" y="40" type="line"/>
      <point x="290" y="274" type="line"/>
      <point x="503" y="520" type="line"/>
      <point x="348" y="520" type="line"/>
      <point x="135" y="280" type="line"/>
    </contour>
  </outline>
</glyph>
<glyph name="overline" format="2">
  <advance width="600"/>
  <unicode hex="203E"/>
  <outline>
    <contour>
      <point x="56" y="690" type="line"/>
      <point x="676" y="690" type="line"/>
      <point x="698" y="830" type="line"/>
      <point x="78" y="830" type="line"/>
    </contour>
  </outline>
</glyph>
<glyph name="fraction" format="2">
  <advance width="600"/>
  <unicode hex="2044"/>
  <outline>
    <contour>
      <point x="26" y="0" type="line"/>
      <point x="114" y="0" type="line"/>
      <point x="602" y="730" type="line"/>
      <point x="514" y="730" type="line"/>
    </contour>
  </outline>
</glyph>
<glyph name="bracketrightwithquill" format="2">
  <advance width="600"/>
  <unicode hex="2046"/>
  <outline>
    <contour>
      <point x="98" y="-110" type="line"/>
      <point x="403" y="-110" type="line"/>
      <point x="551" y="830" type="line"/>
      <point x="246" y="830" type="line"/>
      <point x="224" y="690" type="line"/>
      <point x="379" y="690" type="line"/>
      <point x="340" y="445" type="line"/>
      <point x="185" y="445" type="line"/>
      <point x="163" y="305" type="line"/>
      <point x="318" y="305" type="line"/>
      <point x="275" y="30" type="line"/>
      <point x="120" y="30" type="line"/>
    </contour>
  </outline>
</glyph>
<glyph name="foursuperior" format="2">
  <advance width="600"/>
  <unicode hex="2074"/>
  <outline>
    <contour>
      <point x="365" y="405" type="line"/>
      <point x="460" y="405" type="line"/>
      <point x="501" y="660" type="line"/>
      <point x="406" y="660" type="line"/>
      <point x="391" y="570" type="line"/>
      <point x="276" y="570" type="line"/>
      <point x="279" y="586" type="line"/>
      <point x="489" y="830" type="line"/>
      <point x="386" y="830" type="line"/>
      <point x="186" y="601" type="line"/>
      <point x="169" y="490" type="line"/>
      <point x="379" y="490" type="line"/>
    </contour>
  </outline>
</glyph>
<glyph name="sixsuperior" format="2">
  <advance width="600"/>
  <unicode hex="2076"/>
  <outline>
    <contour>
      <point x="320" y="395" type="curve" smooth="yes"/>
      <point x="419" y="395"/>
      <point x="494" y="453"/>
      <point x="508" y="540" type="curve" smooth="yes"/>
      <point x="520" y="621"/>
      <point x="478" y="675"/>
      <point x="407" y="675" type="curve" smooth="yes"/>
      <point x="366" y="675"/>
      <point x="332" y="657"/>
      <point x="309" y="623" type="curve"/>
      <point x="358" y="643" type="line"/>
      <point x="320" y="643" type="line"/>
      <point x="471" y="830" type="line"/>
      <point x="373" y="830" type="line"/>
      <point x="240" y="668" type="line" smooth="yes"/>
      <point x="207" y="628"/>
      <point x="181" y="577"/>
      <point x="176" y="540" type="curve" smooth="yes"/>
      <point x="162" y="453"/>
      <point x="220" y="395"/>
    </contour>
    <contour>
      <point x="332" y="477" type="curve" smooth="yes"/>
      <point x="288" y="477"/>
      <point x="263" y="502"/>
      <point x="269" y="540" type="curve" smooth="yes"/>
      <point x="275" y="578"/>
      <point x="308" y="603"/>
      <point x="352" y="603" type="curve" smooth="yes"/>
      <point x="397" y="603"/>
      <point x="421" y="578"/>
      <point x="415" y="540" type="curve" smooth="yes"/>
      <point x="409" y="502"/>
      <point x="377" y="477"/>
    </contour>
  </outline>
</glyph>
<glyph name="sevensuperior" format="2">
  <advance width="600"/>
  <unicode hex="2077"/>
  <outline>
    <contour>
      <point x="209" y="405" type="line"/>
      <point x="314" y="405" type="line"/>
      <point x="529" y="732" type="line"/>
      <point x="544" y="830" type="line"/>
      <point x="222" y="830" type="line"/>
      <point x="199" y="683" type="line"/>
      <point x="289" y="683" type="line"/>
      <point x="299" y="746" type="line"/>
      <point x="440" y="746" type="line"/>
    </contour>
  </outline>
</glyph>
<glyph name="theredoesnotexist" format="2">
  <advance width="600"/>
  <unicode hex="2204"/>
  <outline>
    <contour>
      <point x="-1" y="-110" type="line"/>
      <point x="96" y="-110" type="line"/>
      <point x="589" y="830" type="line"/>
      <point x="492" y="830" type="line"/>
    </contour>
    <component base="existential"/>
  </outline>
</glyph>
<glyph name="emptyset" format="2">
  <advance width="600"/>
  <unicode hex="2205"/>
  <outline>
    <contour>
      <point x="314" y="50" type="curve" smooth="yes"/>
      <point x="491" y="50"/>
      <point x="624" y="183"/>
      <point x="624" y="360" type="curve" smooth="yes"/>
      <point x="624" y="537"/>
      <point x="491" y="670"/>
      <point x="314" y="670" type="curve" smooth="yes"/>
      <point x="137" y="670"/>
      <point x="4" y="537"/>
      <point x="4" y="360" type="curve" smooth="yes"/>
      <point x="4" y="183"/>
      <point x="137" y="50"/>
    </contour>
    <contour>
      <point x="314" y="180" type="curve" smooth="yes"/>
      <point x="217" y="180"/>
      <point x="144" y="257"/>
      <point x="144" y="360" type="curve" smooth="yes"/>
      <point x="144" y="463"/>
      <point x="217" y="540"/>
      <point x="314" y="540" type="curve" smooth="yes"/>
      <point x="411" y="540"/>
      <point x="484" y="463"/>
      <point x="484" y="360" type="curve" smooth="yes"/>
      <point x="484" y="257"/>
      <point x="411" y="180"/>
    </contour>
    <contour>
      <point x="34" y="0" type="line"/>
      <point x="136" y="0" type="line"/>
      <point x="594" y="730" type="line"/>
      <point x="492" y="730" type="line"/>
    </contour>
  </outline>
</glyph>
<glyph name="radical" format="2">
  <advance width="600"/>
  <unicode hex="221A"/>
  <outline>
    <contour>
      <point x="164" y="0" type="line"/>
      <point x="350" y="0" type="line"/>
      <point x="677" y="730" type="line"/>
      <point x="524" y="730" type="line"/>
      <point x="311" y="218" type="line" smooth="yes"/>
      <point x="296" y="182"/>
      <point x="283" y="135"/>
      <point x="278" y="110" type="curve"/>
      <point x="245" y="550" type="line"/>
      <point x="48" y="550" type="line"/>
      <point x="27" y="415" type="line"/>
      <point x="120" y="415" type="line"/>
    </contour>
  </outline>
</glyph>
<glyph name="doesnotdivide" format="2">
  <advance width="600"/>
  <unicode hex="2224"/>
  <outline>
    <contour>
      <point x="31" y="140" type="line"/>
      <point x="144" y="140" type="line"/>
      <point x="598" y="590" type="line"/>
      <point x="485" y="590" type="line"/>
    </contour>
    <component base="divides"/>
  </outline>
</glyph>
<glyph name="logicalor" format="2">
  <advance width="600"/>
  <unicode hex="2228"/>
  <outline>
    <contour>
      <point x="171" y="50" type="line"/>
      <point x="359" y="50" type="line"/>
      <point x="616" y="550" type="line"/>
      <point x="460" y="550" type="line"/>
      <point x="286" y="177" type="line"/>
      <point x="222" y="550" type="line"/>
      <point x="70" y="550" type="line"/>
    </contour>
  </outline>
</glyph>
<glyph name="ratio" format="2">
  <advance width="600"/>
  <unicode hex="2236"/>
  <outline>
    <contour>
      <point x="300" y="380" type="curve" smooth="yes"/>
      <point x="360" y="380"/>
      <point x="400" y="416"/>
      <point x="400" y="470" type="curve" smooth="yes"/>
      <point x="400" y="524"/>
      <point x="360" y="560"/>
      <point x="300" y="560" type="curve" smooth="yes"/>
      <point x="240" y="560"/>
      <point x="200" y="524"/>
      <point x="200" y="470" type="curve" smooth="yes"/>
      <point x="200" y="416"/>
      <point x="240" y="380"/>
    </contour>
    <contour>
      <point x="300" y="-10" type="curve" smooth="yes"/>
      <point x="360" y="-10"/>
      <point x="400" y="26"/>
      <point x="400" y="80" type="curve" smooth="yes"/>
      <point x="400" y="134"/>
      <point x="360" y="170"/>
      <point x="300" y="170" type="curve" smooth="yes"/>
      <point x="240" y="170"/>
      <point x="200" y="134"/>
      <point x="200" y="80" type="curve" smooth="yes"/>
      <point x="200" y="26"/>
      <point x="240" y="-10"/>
    </contour>
  </outline>
</glyph>
<glyph name="dotminus" format="2">
  <advance width="600"/>
  <unicode hex="2238"/>
  <outline>
    <contour>
      <point x="310" y="335" type="curve" smooth="yes"/>
      <point x="370" y="335"/>
      <point x="416" y="371"/>
      <point x="424" y="425" type="curve" smooth="yes"/>
      <point x="433" y="479"/>
      <point x="399" y="515"/>
      <point x="339" y="515" type="curve" smooth="yes"/>
      <point x="279" y="515"/>
      <point x="233" y="479"/>
      <point x="224" y="425" type="curve" smooth="yes"/>
      <point x="216" y="371"/>
      <point x="250" y="335"/>
    </contour>
    <component base="minus" xOffset="-20" yOffset="-125"/>
  </outline>
</glyph>
<glyph name="excess" format="2">
  <advance width="600"/>
  <unicode hex="2239"/>
  <outline>
    <contour>
      <point x="-7" y="260" type="line"/>
      <point x="343" y="260" type="line"/>
      <point x="365" y="400" type="line"/>
      <point x="15" y="400" type="line"/>
    </contour>
    <contour>
      <point x="477" y="93" type="curve" smooth="yes"/>
      <point x="537" y="93"/>
      <point x="582" y="127"/>
      <point x="591" y="180" type="curve" smooth="yes"/>
      <point x="599" y="236"/>
      <point x="565" y="273"/>
      <point x="505" y="273" type="curve" smooth="yes"/>
      <point x="445" y="273"/>
      <point x="399" y="236"/>
      <point x="391" y="180" type="curve" smooth="yes"/>
      <point x="382" y="127"/>
      <point x="417" y="93"/>
    </contour>
    <contour>
      <point x="523" y="387" type="curve" smooth="yes"/>
      <point x="583" y="387"/>
      <point x="629" y="421"/>
      <point x="637" y="474" type="curve" smooth="yes"/>
      <point x="646" y="530"/>
      <point x="612" y="567"/>
      <point x="552" y="567" type="curve" smooth="yes"/>
      <point x="492" y="567"/>
      <point x="446" y="530"/>
      <point x="437" y="474" type="curve" smooth="yes"/>
      <point x="429" y="421"/>
      <point x="463" y="387"/>
    </contour>
  </outline>
</glyph>
<glyph name="asymptoticallyequal" format="2">
  <advance width="600"/>
  <unicode hex="2243"/>
  <outline>
    <contour>
      <point x="23" y="135" type="line"/>
      <point x="533" y="135" type="line"/>
      <point x="555" y="275" type="line"/>
      <point x="45" y="275" type="line"/>
    </contour>
    <component base="asciitilde" xOffset="19" yOffset="114"/>
  </outline>
</glyph>
<glyph name="congruent" format="2">
  <advance width="600"/>
  <unicode hex="2245"/>
  <outline>
    <contour>
      <point x="1" y="0" type="line"/>
      <point x="511" y="0" type="line"/>
      <point x="532" y="130" type="line"/>
      <point x="22" y="130" type="line"/>
    </contour>
    <contour>
      <point x="43" y="265" type="line"/>
      <point x="553" y="265" type="line"/>
      <point x="574" y="395" type="line"/>
      <point x="64" y="395" type="line"/>
    </contour>
    <component base="asciitilde" xOffset="39" yOffset="245"/>
  </outline>
</glyph>
<glyph name="neitherapproximatelynoractuallyequalto" format="2">
  <advance width="600"/>
  <unicode hex="2247"/>
  <outline>
    <contour>
      <point x="45" y="-100" type="line"/>
      <point x="136" y="-100" type="line"/>
      <point x="575" y="780" type="line"/>
      <point x="484" y="780" type="line"/>
    </contour>
    <contour>
      <point x="1" y="0" type="line"/>
      <point x="511" y="0" type="line"/>
      <point x="532" y="130" type="line"/>
      <point x="22" y="130" type="line"/>
    </contour>
    <contour>
      <point x="43" y="265" type="line"/>
      <point x="553" y="265" type="line"/>
      <point x="574" y="395" type="line"/>
      <point x="64" y="395" type="line"/>
    </contour>
    <component base="asciitilde" xOffset="37" yOffset="245"/>
  </outline>
</glyph>
<glyph name="colonequals" format="2">
  <advance width="600"/>
  <unicode hex="2254"/>
  <outline>
    <contour>
      <point x="227" y="135" type="line"/>
      <point x="577" y="135" type="line"/>
      <point x="600" y="275" type="line"/>
      <point x="250" y="275" type="line"/>
    </contour>
    <contour>
      <point x="59" y="85" type="curve" smooth="yes"/>
      <point x="120" y="85"/>
      <point x="165" y="122"/>
      <point x="175" y="180" type="curve" smooth="yes"/>
      <point x="184" y="242"/>
      <point x="152" y="281"/>
      <point x="91" y="281" type="curve" smooth="yes"/>
      <point x="29" y="281"/>
      <point x="-16" y="242"/>
      <point x="-25" y="180" type="curve" smooth="yes"/>
      <point x="-35" y="122"/>
      <point x="-3" y="85"/>
    </contour>
    <contour>
      <point x="106" y="379" type="curve" smooth="yes"/>
      <point x="168" y="379"/>
      <point x="212" y="416"/>
      <point x="221" y="474" type="curve" smooth="yes"/>
      <point x="231" y="536"/>
      <point x="199" y="575"/>
      <point x="137" y="575" type="curve" smooth="yes"/>
      <point x="76" y="575"/>
      <point x="31" y="536"/>
      <point x="21" y="474" type="curve" smooth="yes"/>
      <point x="12" y="416"/>
      <point x="44" y="379"/>
    </contour>
    <contour>
      <point x="267" y="385" type="line"/>
      <point x="617" y="385" type="line"/>
      <point x="639" y="525" type="line"/>
      <point x="289" y="525" type="line"/>
    </contour>
  </outline>
</glyph>
<glyph name="muchless" format="2">
  <advance width="600"/>
  <unicode hex="226A"/>
  <outline>
    <contour>
      <point x="564" y="48" type="line"/>
      <point x="583" y="166" type="line"/>
      <point x="419" y="297" type="line" smooth="yes"/>
      <point x="403" y="310"/>
      <point x="389" y="321"/>
      <point x="375" y="328" type="curve"/>
      <point x="391" y="335"/>
      <point x="406" y="344"/>
      <point x="429" y="358" type="curve" smooth="yes"/>
      <point x="632" y="481" type="line"/>
      <point x="653" y="608" type="line"/>
      <point x="298" y="390" type="line"/>
      <point x="279" y="267" type="line"/>
    </contour>
    <contour>
      <point x="284" y="48" type="line"/>
      <point x="302" y="166" type="line"/>
      <point x="139" y="297" type="line" smooth="yes"/>
      <point x="123" y="310"/>
      <point x="109" y="321"/>
      <point x="95" y="328" type="curve"/>
      <point x="111" y="335"/>
      <point x="126" y="344"/>
      <point x="149" y="358" type="curve" smooth="yes"/>
      <point x="352" y="481" type="line"/>
      <point x="372" y="608" type="line"/>
      <point x="18" y="390" type="line"/>
      <point x="-1" y="267" type="line"/>
    </contour>
  </outline>
</glyph>
<glyph name="precedes" format="2">
  <advance width="600"/>
  <unicode hex="227A"/>
  <outline>
    <contour>
      <point x="365" y="55" type="curve"/>
      <point x="495" y="55" type="line"/>
      <point x="506" y="229"/>
      <point x="381" y="324"/>
      <point x="149" y="330" type="curve"/>
      <point x="148" y="328" type="line"/>
      <point x="382" y="332"/>
      <point x="539" y="436"/>
      <point x="581" y="600" type="curve"/>
      <point x="451" y="600" type="line"/>
      <point x="415" y="479"/>
      <point x="275" y="410"/>
      <point x="66" y="410" type="curve"/>
      <point x="41" y="250" type="line"/>
      <point x="252" y="250"/>
      <point x="369" y="179"/>
    </contour>
  </outline>
</glyph>
<glyph name="precedesorequalto" format="2">
  <advance width="600"/>
  <unicode hex="227C"/>
  <outline>
    <contour>
      <point x="14" y="0" type="line"/>
      <point x="499" y="0" type="line"/>
      <point x="521" y="140" type="line"/>
      <point x="36" y="140" type="line"/>
    </contour>
    <component base="precedes" xOffset="32" yOffset="125"/>
  </outline>
</glyph>
<glyph name="squareoriginalof" format="2">
  <advance width="600"/>
  <unicode hex="2290"/>
  <outline>
    <contour>
      <point x="-7" y="75" type="line"/>
      <point x="543" y="75" type="line"/>
      <point x="624" y="585" type="line"/>
      <point x="74" y="585" type="line"/>
      <point x="51" y="445" type="line"/>
      <point x="452" y="445" type="line"/>
      <point x="416" y="215" type="line"/>
      <point x="15" y="215" type="line"/>
    </contour>
  </outline>
</glyph>
<glyph name="squarecup" format="2">
  <advance width="600"/>
  <unicode hex="2294"/>
  <outline>
    <contour>
      <point x="14" y="80" type="line"/>
      <point x="524" y="80" type="line"/>
      <point x="611" y="630" type="line"/>
      <point x="461" y="630" type="line"/>
      <point x="396" y="220" type="line"/>
      <point x="186" y="220" type="line"/>
      <point x="251" y="630" type="line"/>
      <point x="101" y="630" type="line"/>
    </contour>
  </outline>
</glyph>
<glyph name="plus.circled" format="2">
  <advance width="600"/>
  <unicode hex="2295"/>
  <outline>
    <contour>
      <point x="309" y="20" type="curve" smooth="yes"/>
      <point x="486" y="20"/>
      <point x="619" y="153"/>
      <point x="619" y="330" type="curve" smooth="yes"/>
      <point x="619" y="507"/>
      <point x="486" y="640"/>
      <point x="309" y="640" type="curve" smooth="yes"/>
      <point x="132" y="640"/>
      <point x="-1" y="507"/>
      <point x="-1" y="330" type="curve" smooth="yes"/>
      <point x="-1" y="153"/>
      <point x="132" y="20"/>
    </contour>
    <contour>
      <point x="309" y="70" type="curve" smooth="yes"/>
      <point x="161" y="70"/>
      <point x="49" y="182"/>
      <point x="49" y="330" type="curve" smooth="yes"/>
      <point x="49" y="478"/>
      <point x="161" y="590"/>
      <point x="309" y="590" type="curve" smooth="yes"/>
      <point x="457" y="590"/>
      <point x="569" y="478"/>
      <point x="569" y="330" type="curve" smooth="yes"/>
      <point x="569" y="182"/>
      <point x="457" y="70"/>
    </contour>
    <contour>
      <point x="234" y="50" type="line"/>
      <point x="384" y="50" type="line"/>
      <point x="384" y="260" type="line"/>
      <point x="594" y="260" type="line"/>
      <point x="594" y="400" type="line"/>
      <point x="384" y="400" type="line"/>
      <point x="384" y="610" type="line"/>
      <point x="234" y="610" type="line"/>
      <point x="234" y="400" type="line"/>
      <point x="34" y="400" type="line"/>
      <point x="34" y="260" type="line"/>
      <point x="234" y="260" type="line"/>
    </contour>
  </outline>
</glyph>
<glyph name="equals.circled" format="2">
  <advance width="600"/>
  <unicode hex="229C"/>
  <outline>
    <contour>
      <point x="309" y="20" type="curve" smooth="yes"/>
      <point x="486" y="20"/>
      <point x="619" y="153"/>
      <point x="619" y="330" type="curve" smooth="yes"/>
      <point x="619" y="507"/>
      <point x="486" y="640"/>
      <point x="309" y="640" type="curve" smooth="yes"/>
      <point x="132" y="640"/>
      <point x="-1" y="507"/>
      <point x="-1" y="330" type="curve" smooth="yes"/>
      <point x="-1" y="153"/>
      <point x="132" y="20"/>
    </contour>
    <contour>
      <point x="309" y="70" type="curve" smooth="yes"/>
      <point x="161" y="70"/>
      <point x="49" y="182"/>
      <point x="49" y="330" type="curve" smooth="yes"/>
      <point x="49" y="478"/>
      <point x="161" y="590"/>
      <point x="309" y="590" type="curve" smooth="yes"/>
      <point x="457" y="590"/>
      <point x="569" y="478"/>
      <point x="569" y="330" type="curve" smooth="yes"/>
      <point x="569" y="182"/>
      <point x="457" y="70"/>
    </contour>
    <contour>
      <point x="14" y="355" type="line"/>
      <point x="604" y="355" type="line"/>
      <point x="554" y="495" type="line"/>
      <point x="72" y="495" type="line"/>
    </contour>
    <contour>
      <point x="72" y="165" type="line"/>
      <point x="554" y="165" type="line"/>
      <point x="604" y="305" type="line"/>
      <point x="14" y="305" type="line"/>
    </contour>
  </outline>
</glyph>
<glyph name="curlyor" format="2">
  <advance width="600"/>
  <unicode hex="22CE"/>
  <outline>
    <contour>
      <point x="174" y="0" type="line"/>
      <point x="334" y="0" type="line"/>
      <point x="346" y="77" type="line"/>
      <point x="379" y="284"/>
      <point x="470" y="410"/>
      <point x="596" y="425" type="curve"/>
      <point x="617" y="555" type="line"/>
      <point x="443" y="539"/>
      <point x="319" y="393"/>
      <point x="277" y="153" type="curve"/>
      <point x="279" y="153" type="line"/>
      <point x="315" y="392"/>
      <point x="240" y="538"/>
      <point x="72" y="555" type="curve"/>
      <point x="51" y="425" type="line"/>
      <point x="170" y="408"/>
      <point x="219" y="281"/>
      <point x="186" y="77" type="curve"/>
    </contour>
  </outline>
</glyph>
<glyph name="notsquareimageoforequalto" format="2">
  <advance width="600"/>
  <unicode hex="22E2"/>
  <outline>
    <contour>
      <point x="27" y="-110" type="line"/>
      <point x="124" y="-110" type="line"/>
      <point x="617" y="830" type="line"/>
      <point x="520" y="830" type="line"/>
    </contour>
    <component base="squareimageoforequalto"/>
  </outline>
</glyph>
<glyph name="curlybracketextension" format="2">
  <advance width="600"/>
  <unicode hex="23AA"/>
  <outline>
    <contour>
      <point x="225" y="-300" type="line"/>
      <point x="375" y="-300" type="line"/>
      <point x="375" y="1020" type="line"/>
      <point x="225" y="1020" type="line"/>
    </contour>
  </outline>
</glyph>
<glyph name="boxHeavyQuadrupleDashHorizontal" format="2">
  <advance width="600"/>
  <unicode hex="2509"/>
  <outline>
    <contour>
      <point x="475" y="270" type="line"/>
      <point x="575" y="270" type="line"/>
      <point x="575" y="470" type="line"/>
      <point x="475" y="470" type="line"/>
    </contour>
    <contour>
      <point x="25" y="270" type="line"/>
      <point x="125" y="270" type="line"/>
      <point x="125" y="470" type="line"/>
      <point x="25" y="470" type="line"/>
    </contour>
    <contour>
      <point x="175" y="270" type="line"/>
      <point x="275" y="270" type="line"/>
      <point x="275" y="470" type="line"/>
      <point x="175" y="470" type="line"/>
    </contour>
    <contour>
      <point x="325" y="270" type="line"/>
      <point x="425" y="270" type="line"/>
      <point x="425" y="470" type="line"/>
      <point x="325" y="470" type="line"/>
    </contour>
  </outline>
</glyph>
<glyph name="boxDownLightAndLeftHeavy" format="2">
  <advance width="600"/>
  <unicode hex="2511"/>
  <outline>
    <contour>
      <point x="250" y="-400" type="line"/>
      <point x="350" y="-400" type="line"/>
      <point x="350" y="470" type="line"/>
      <point x="-20" y="470" type="line"/>
      <point x="-20" y="270" type="line"/>
      <point x="250" y="270" type="line"/>
    </contour>
  </outline>
</glyph>
<glyph name="sharp-musical" format="2">
  <advance width="600"/>
  <unicode hex="266F"/>
  <outline>
    <contour>
      <point x="90" y="303" type="line"/>
      <point x="560" y="551" type="line"/>
      <point x="560" y="686" type="line"/>
      <point x="90" y="438" type="line"/>
    </contour>
    <contour>
      <point x="208" y="0" type="line"/>
      <point x="251" y="0" type="line"/>
      <point x="251" y="640" type="line"/>
      <point x="208" y="640" type="line"/>
    </contour>
    <contour>
      <point x="90" y="57" type="line"/>
      <point x="560" y="304" type="line"/>
      <point x="560" y="439" type="line"/>
      <point x="90" y="192" type="line"/>
    </contour>
    <contour>
      <point x="406" y="90" type="line"/>
      <point x="449" y="90" type="line"/>
      <point x="449" y="730" type="line"/>
      <point x="406" y="730" type="line"/>
    </contour>
  </outline>
</glyph>
<glyph name="multiplicationX" format="2">
  <advance width="600"/>
  <unicode hex="2715"/>
  <outline>
    <contour>
      <point x="145" y="79" type="line"/>
      <point x="299" y="233" type="line"/>
      <point x="454" y="78" type="line"/>
      <point x="556" y="180" type="line"/>
      <point x="401" y="335" type="line"/>
      <point x="555" y="489" type="line"/>
      <point x="455" y="589" type="line"/>
      <point x="301" y="435" type="line"/>
      <point x="146" y="590" type="line"/>
      <point x="44" y="488" type="line"/>
      <point x="199" y="333" type="line"/>
      <point x="45" y="179" type="line"/>
    </contour>
  </outline>
</glyph>
<glyph name="A.half" format="2">
  <advance width="400"/>
  <outline>
    <contour>
      <point x="209" y="206" type="curve" smooth="yes"/>
      <point x="265" y="0" type="line"/>
      <point x="351" y="0" type="line"/>
      <point x="256" y="335" type="line"/>
      <point x="162" y="335" type="line"/>
      <point x="-39" y="0" type="line"/>
      <point x="54" y="0" type="line"/>
      <point x="173" y="206" type="line" smooth="yes"/>
      <point x="187" y="231"/>
      <point x="195" y="252"/>
      <point x="201" y="270" type="curve"/>
      <point x="201" y="252"/>
      <point x="202" y="232"/>
    </contour>
    <contour>
      <point x="82" y="134" type="line"/>
      <point x="71" y="60" type="line"/>
      <point x="259" y="60" type="line"/>
      <point x="270" y="134" type="line"/>
    </contour>
  </outline>
</glyph>
<glyph name="B.half" format="2">
  <advance width="400"/>
  <outline>
    <contour>
      <point x="-9" y="0" type="line"/>
      <point x="210" y="0" type="line" smooth="yes"/>
      <point x="279" y="0"/>
      <point x="342" y="38"/>
      <point x="351" y="93" type="curve" smooth="yes"/>
      <point x="359" y="146"/>
      <point x="318" y="181"/>
      <point x="245" y="179" type="curve"/>
      <point x="244" y="168" type="line"/>
      <point x="305" y="166"/>
      <point x="351" y="200"/>
      <point x="359" y="251" type="curve" smooth="yes"/>
      <point x="367" y="301"/>
      <point x="316" y="335"/>
      <point x="248" y="335" type="curve" smooth="yes"/>
      <point x="44" y="335" type="line"/>
    </contour>
    <contour>
      <point x="87" y="66" type="line"/>
      <point x="99" y="137" type="line"/>
      <point x="219" y="137" type="line" smooth="yes"/>
      <point x="250" y="137"/>
      <point x="269" y="125"/>
      <point x="265" y="100" type="curve" smooth="yes"/>
      <point x="261" y="75"/>
      <point x="238" y="66"/>
      <point x="207" y="66" type="curve" smooth="yes"/>
    </contour>
    <contour>
      <point x="109" y="199" type="line"/>
      <point x="120" y="269" type="line"/>
      <point x="230" y="269" type="line" smooth="yes"/>
      <point x="257" y="269"/>
      <point x="273" y="260"/>
      <point x="269" y="235" type="curve" smooth="yes"/>
      <point x="265" y="210"/>
      <point x="245" y="199"/>
      <point x="218" y="199" type="curve" smooth="yes"/>
    </contour>
  </outline>
</glyph>
<glyph name="D.half" format="2">
  <advance width="400"/>
  <outline>
    <contour>
      <point x="-9" y="0" type="line"/>
      <point x="151" y="0" type="line" smooth="yes"/>
      <point x="261" y="0"/>
      <point x="347" y="68"/>
      <point x="362" y="167" type="curve" smooth="yes"/>
      <point x="378" y="267"/>
      <point x="314" y="335"/>
      <point x="204" y="335" type="curve" smooth="yes"/>
      <point x="44" y="335" type="line"/>
    </contour>
    <contour>
      <point x="89" y="77" type="line"/>
      <point x="118" y="257" type="line"/>
      <point x="192" y="257" type="line" smooth="yes"/>
      <point x="250" y="257"/>
      <point x="283" y="220"/>
      <point x="274" y="167" type="curve" smooth="yes"/>
      <point x="266" y="114"/>
      <point x="221" y="77"/>
      <point x="163" y="77" type="curve" smooth="yes"/>
    </contour>
  </outline>
</glyph>
<glyph name="H.half" format="2">
  <advance width="400"/>
  <outline>
    <contour>
      <point x="-9" y="0" type="line"/>
      <point x="77" y="0" type="line"/>
      <point x="98" y="133" type="line"/>
      <point x="256" y="133" type="line"/>
      <point x="235" y="0" type="line"/>
      <point x="321" y="0" type="line"/>
      <point x="374" y="335" type="line"/>
      <point x="288" y="335" type="line"/>
      <point x="269" y="213" type="line"/>
      <point x="111" y="213" type="line"/>
      <point x="130" y="335" type="line"/>
      <point x="44" y="335" type="line"/>
    </contour>
  </outline>
</glyph>
<glyph name="I.half" format="2">
  <advance width="400"/>
  <outline>
    <contour>
      <point x="-2" y="0" type="line"/>
      <point x="314" y="0" type="line"/>
      <point x="326" y="78" type="line"/>
      <point x="211" y="78" type="line"/>
      <point x="240" y="257" type="line"/>
      <point x="355" y="257" type="line"/>
      <point x="367" y="335" type="line"/>
      <point x="51" y="335" type="line"/>
      <point x="39" y="257" type="line"/>
      <point x="154" y="257" type="line"/>
      <point x="125" y="78" type="line"/>
      <point x="10" y="78" type="line"/>
    </contour>
  </outline>
</glyph>
<glyph name="K.half" format="2">
  <advance width="400"/>
  <outline>
    <contour>
      <point x="-9" y="0" type="line"/>
      <point x="77" y="0" type="line"/>
      <point x="98" y="133" type="line"/>
      <point x="166" y="133" type="line"/>
      <point x="242" y="0" type="line"/>
      <point x="336" y="0" type="line"/>
      <point x="238" y="172" type="line"/>
      <point x="379" y="335" type="line"/>
      <point x="279" y="335" type="line"/>
      <point x="171" y="211" type="line"/>
      <point x="110" y="211" type="line"/>
      <point x="130" y="335" type="line"/>
      <point x="44" y="335" type="line"/>
    </contour>
  </outline>
</glyph>
<glyph name="L.half" format="2">
  <advance width="400"/>
  <anchor x="652" y="730" name="topright"/>
  <outline>
    <contour>
      <point x="28" y="0" type="line"/>
      <point x="326" y="0" type="line"/>
      <point x="339" y="80" type="line"/>
      <point x="127" y="80" type="line"/>
      <point x="167" y="335" type="line"/>
      <point x="81" y="335" type="line"/>
    </contour>
  </outline>
</glyph>
<glyph name="Q.half" format="2">
  <advance width="400"/>
  <outline>
    <contour>
      <point x="155" y="-5" type="curve" smooth="yes"/>
      <point x="184" y="-5"/>
      <point x="224" y="5"/>
      <point x="249" y="18" type="curve"/>
      <point x="226" y="89" type="line"/>
      <point x="210" y="80"/>
      <point x="185" y="73"/>
      <point x="168" y="73" type="curve" smooth="yes"/>
      <point x="118" y="73"/>
      <point x="85" y="106"/>
      <point x="85" y="152" type="curve" smooth="yes"/>
      <point x="85" y="213"/>
      <point x="137" y="261"/>
      <point x="197" y="261" type="curve" smooth="yes"/>
      <point x="246" y="261"/>
      <point x="279" y="229"/>
      <point x="279" y="184" type="curve" smooth="yes"/>
      <point x="279" y="171"/>
      <point x="276" y="150"/>
      <point x="266" y="134" type="curve"/>
      <point x="314" y="63" type="line"/>
      <point x="343" y="95"/>
      <point x="368" y="147"/>
      <point x="368" y="196" type="curve" smooth="yes"/>
      <point x="368" y="280"/>
      <point x="305" y="340"/>
      <point x="210" y="340" type="curve" smooth="yes"/>
      <point x="96" y="340"/>
      <point x="-4" y="251"/>
      <point x="-4" y="140" type="curve" smooth="yes"/>
      <point x="-4" y="56"/>
      <point x="60" y="-5"/>
    </contour>
    <contour>
      <point x="251" y="-58" type="line"/>
      <point x="339" y="-58" type="line"/>
      <point x="226" y="125" type="line"/>
      <point x="138" y="125" type="line"/>
    </contour>
  </outline>
</glyph>
<glyph name="S.half" format="2">
  <advance width="400"/>
  <outline>
    <contour>
      <point x="122" y="-3" type="curve" smooth="yes"/>
      <point x="190" y="-3" type="line" smooth="yes"/>
      <point x="274" y="-3"/>
      <point x="342" y="42"/>
      <point x="342" y="118" type="curve" smooth="yes"/>
      <point x="342" y="166"/>
      <point x="304" y="201"/>
      <point x="238" y="208" type="curve" smooth="yes"/>
      <point x="149" y="218" type="line" smooth="yes"/>
      <point x="128" y="220"/>
      <point x="116" y="228"/>
      <point x="116" y="239" type="curve" smooth="yes"/>
      <point x="116" y="255"/>
      <point x="134" y="268"/>
      <point x="158" y="268" type="curve" smooth="yes"/>
      <point x="228" y="268" type="line" smooth="yes"/>
      <point x="255" y="268"/>
      <point x="273" y="257"/>
      <point x="273" y="244" type="curve"/>
      <point x="359" y="244" type="line"/>
      <point x="359" y="302"/>
      <point x="313" y="338"/>
      <point x="240" y="338" type="curve" smooth="yes"/>
      <point x="170" y="338" type="line" smooth="yes"/>
      <point x="93" y="338"/>
      <point x="29" y="296"/>
      <point x="29" y="227" type="curve" smooth="yes"/>
      <point x="29" y="180"/>
      <point x="66" y="146"/>
      <point x="130" y="139" type="curve" smooth="yes"/>
      <point x="216" y="129" type="line" smooth="yes"/>
      <point x="240" y="126"/>
      <point x="255" y="115"/>
      <point x="255" y="101" type="curve" smooth="yes"/>
      <point x="255" y="83"/>
      <point x="233" y="67"/>
      <point x="201" y="67" type="curve" smooth="yes"/>
      <point x="133" y="67" type="line" smooth="yes"/>
      <point x="102" y="67"/>
      <point x="84" y="83"/>
      <point x="85" y="103" type="curve"/>
      <point x="-1" y="103" type="line"/>
      <point x="-4" y="37"/>
      <point x="44" y="-3"/>
    </contour>
  </outline>
</glyph>
<glyph name="U.half" format="2">
  <advance width="400"/>
  <outline>
    <contour>
      <point x="154" y="-10" type="curve" smooth="yes"/>
      <point x="252" y="-10"/>
      <point x="329" y="53"/>
      <point x="344" y="144" type="curve" smooth="yes"/>
      <point x="374" y="335" type="line"/>
      <point x="288" y="335" type="line"/>
      <point x="258" y="144" type="line" smooth="yes"/>
      <point x="251" y="100"/>
      <point x="214" y="70"/>
      <point x="167" y="70" type="curve" smooth="yes"/>
      <point x="120" y="70"/>
      <point x="93" y="100"/>
      <point x="100" y="144" type="curve" smooth="yes"/>
      <point x="130" y="335" type="line"/>
      <point x="44" y="335" type="line"/>
      <point x="14" y="144" type="line" smooth="yes"/>
      <point x="-1" y="53"/>
      <point x="56" y="-10"/>
    </contour>
  </outline>
</glyph>
<glyph name="X.half" format="2">
  <advance width="400"/>
  <outline>
    <contour>
      <point x="-24" y="0" type="line"/>
      <point x="79" y="0" type="line"/>
      <point x="159" y="86" type="line" smooth="yes"/>
      <point x="168" y="95"/>
      <point x="172" y="109"/>
      <point x="174" y="122" type="curve"/>
      <point x="175" y="109"/>
      <point x="178" y="96"/>
      <point x="185" y="85" type="curve" smooth="yes"/>
      <point x="237" y="0" type="line"/>
      <point x="336" y="0" type="line"/>
      <point x="228" y="167" type="line"/>
      <point x="389" y="335" type="line"/>
      <point x="286" y="335" type="line"/>
      <point x="208" y="249" type="line" smooth="yes"/>
      <point x="199" y="239"/>
      <point x="195" y="226"/>
      <point x="193" y="214" type="curve"/>
      <point x="191" y="226"/>
      <point x="186" y="240"/>
      <point x="180" y="249" type="curve" smooth="yes"/>
      <point x="128" y="335" type="line"/>
      <point x="30" y="335" type="line"/>
      <point x="138" y="169" type="line"/>
    </contour>
  </outline>
</glyph>
<glyph name="_similiar_tilda" format="2">
  <advance width="600"/>
  <outline>
    <contour>
      <point x="35" y="248" type="line"/>
      <point x="155" y="248" type="line"/>
      <point x="160" y="278" type="line" smooth="yes"/>
      <point x="164" y="303"/>
      <point x="181" y="318"/>
      <point x="206" y="318" type="curve" smooth="yes"/>
      <point x="266" y="318"/>
      <point x="282" y="228"/>
      <point x="397" y="228" type="curve" smooth="yes"/>
      <point x="492" y="228"/>
      <point x="562" y="288"/>
      <point x="577" y="383" type="curve" smooth="yes"/>
      <point x="581" y="413" type="line"/>
      <point x="461" y="413" type="line"/>
      <point x="457" y="383" type="line" smooth="yes"/>
      <point x="453" y="358"/>
      <point x="435" y="343"/>
      <point x="410" y="343" type="curve" smooth="yes"/>
      <point x="350" y="343"/>
      <point x="335" y="433"/>
      <point x="220" y="433" type="curve" smooth="yes"/>
      <point x="125" y="433"/>
      <point x="55" y="373"/>
      <point x="40" y="278" type="curve" smooth="yes"/>
    </contour>
  </outline>
</glyph>
<glyph name="acutecomb.case" format="2">
  <anchor x="-240" y="730" name="_top"/>
  <anchor x="-161" y="950" name="top"/>
  <outline>
    <contour>
      <point x="-319" y="810" type="line"/>
      <point x="-164" y="810" type="line"/>
      <point x="-25" y="950" type="line"/>
      <point x="-192" y="950" type="line"/>
    </contour>
  </outline>
</glyph>
<glyph name="ampersand_ampersand_ampersand.liga" format="2">
  <advance width="600"/>
  <outline>
    <contour>
      <point x="129" y="-10" type="curve" smooth="yes"/>
      <point x="195" y="-10"/>
      <point x="255" y="11"/>
      <point x="305" y="51" type="curve"/>
      <point x="333" y="0" type="line"/>
      <point x="476" y="0" type="line"/>
      <point x="393" y="155" type="line"/>
      <point x="527" y="360" type="line"/>
      <point x="387" y="360" type="line"/>
      <point x="330" y="271" type="line"/>
      <point x="241" y="436" type="line" smooth="yes"/>
      <point x="217" y="480"/>
      <point x="203" y="518"/>
      <point x="208" y="550" type="curve" smooth="yes"/>
      <point x="215" y="592"/>
      <point x="247" y="620"/>
      <point x="289" y="620" type="curve" smooth="yes"/>
      <point x="331" y="620"/>
      <point x="355" y="592"/>
      <point x="348" y="550" type="curve"/>
      <point x="483" y="550" type="line"/>
      <point x="501" y="664"/>
      <point x="431" y="740"/>
      <point x="308" y="740" type="curve" smooth="yes"/>
      <point x="188" y="740"/>
      <point x="97" y="668"/>
      <point x="80" y="565" type="curve" smooth="yes"/>
      <point x="71" y="507"/>
      <point x="87" y="449"/>
      <point x="120" y="390" type="curve"/>
      <point x="145" y="443" type="line"/>
      <point x="52" y="434"/>
      <point x="-12" y="367"/>
      <point x="-28" y="265" type="curve" smooth="yes"/>
      <point x="-39" y="195" type="line" smooth="yes"/>
      <point x="-60" y="66"/>
      <point x="1" y="-10"/>
    </contour>
    <contour>
      <point x="-918" y="110" type="curve" smooth="yes"/>
      <point x="-963" y="110"/>
      <point x="-988" y="140"/>
      <point x="-979" y="195" type="curve" smooth="yes"/>
      <point x="-968" y="265" type="line" smooth="yes"/>
      <point x="-963" y="298"/>
      <point x="-950" y="321"/>
      <point x="-931" y="335" type="curve"/>
      <point x="-830" y="151" type="line"/>
      <point x="-854" y="125"/>
      <point x="-885" y="110"/>
    </contour>
    <contour>
      <point x="-951" y="-10" type="curve" smooth="yes"/>
      <point x="-885" y="-10"/>
      <point x="-825" y="11"/>
      <point x="-775" y="51" type="curve"/>
      <point x="-747" y="0" type="line"/>
      <point x="-604" y="0" type="line"/>
      <point x="-839" y="436" type="line" smooth="yes"/>
      <point x="-863" y="480"/>
      <point x="-877" y="518"/>
      <point x="-872" y="550" type="curve" smooth="yes"/>
      <point x="-865" y="592"/>
      <point x="-833" y="620"/>
      <point x="-791" y="620" type="curve" smooth="yes"/>
      <point x="-749" y="620"/>
      <point x="-725" y="592"/>
      <point x="-732" y="550" type="curve"/>
      <point x="-597" y="550" type="line"/>
      <point x="-579" y="664"/>
      <point x="-649" y="740"/>
      <point x="-772" y="740" type="curve" smooth="yes"/>
      <point x="-892" y="740"/>
      <point x="-983" y="668"/>
      <point x="-1000" y="565" type="curve" smooth="yes"/>
      <point x="-1009" y="507"/>
      <point x="-993" y="449"/>
      <point x="-960" y="390" type="curve"/>
      <point x="-935" y="443" type="line"/>
      <point x="-1028" y="434"/>
      <point x="-1092" y="367"/>
      <point x="-1108" y="265" type="curve" smooth="yes"/>
      <point x="-1119" y="195" type="line" smooth="yes"/>
      <point x="-1140" y="66"/>
      <point x="-1079" y="-10"/>
    </contour>
    <contour>
      <point x="-378" y="110" type="curve" smooth="yes"/>
      <point x="-423" y="110"/>
      <point x="-448" y="140"/>
      <point x="-439" y="195" type="curve" smooth="yes"/>
      <point x="-428" y="265" type="line" smooth="yes"/>
      <point x="-423" y="298"/>
      <point x="-410" y="321"/>
      <point x="-391" y="335" type="curve"/>
      <point x="-290" y="151" type="line"/>
      <point x="-314" y="125"/>
      <point x="-345" y="110"/>
    </contour>
    <contour>
      <point x="-411" y="-10" type="curve" smooth="yes"/>
      <point x="-345" y="-10"/>
      <point x="-285" y="11"/>
      <point x="-235" y="51" type="curve"/>
      <point x="-207" y="0" type="line"/>
      <point x="-64" y="0" type="line"/>
      <point x="-299" y="436" type="line" smooth="yes"/>
      <point x="-323" y="480"/>
      <point x="-337" y="518"/>
      <point x="-332" y="550" type="curve" smooth="yes"/>
      <point x="-325" y="592"/>
      <point x="-293" y="620"/>
      <point x="-251" y="620" type="curve" smooth="yes"/>
      <point x="-209" y="620"/>
      <point x="-185" y="592"/>
      <point x="-192" y="550" type="curve"/>
      <point x="-57" y="550" type="line"/>
      <point x="-39" y="664"/>
      <point x="-109" y="740"/>
      <point x="-232" y="740" type="curve" smooth="yes"/>
      <point x="-352" y="740"/>
      <point x="-443" y="668"/>
      <point x="-460" y="565" type="curve" smooth="yes"/>
      <point x="-469" y="507"/>
      <point x="-453" y="449"/>
      <point x="-420" y="390" type="curve"/>
      <point x="-395" y="443" type="line"/>
      <point x="-488" y="434"/>
      <point x="-552" y="367"/>
      <point x="-568" y="265" type="curve" smooth="yes"/>
      <point x="-579" y="195" type="line" smooth="yes"/>
      <point x="-600" y="66"/>
      <point x="-539" y="-10"/>
    </contour>
    <contour>
      <point x="162" y="110" type="curve" smooth="yes"/>
      <point x="117" y="110"/>
      <point x="92" y="140"/>
      <point x="101" y="195" type="curve" smooth="yes"/>
      <point x="112" y="265" type="line" smooth="yes"/>
      <point x="117" y="298"/>
      <point x="130" y="321"/>
      <point x="149" y="335" type="curve"/>
      <point x="250" y="151" type="line"/>
      <point x="226" y="125"/>
      <point x="195" y="110"/>
    </contour>
  </outline>
</glyph>
<glyph name="asciicircum_equal.liga" format="2">
  <advance width="600"/>
  <outline>
    <contour>
      <point x="-453" y="385" type="line"/>
      <point x="-310" y="385" type="line"/>
      <point x="-141" y="637" type="line"/>
      <point x="-53" y="385" type="line"/>
      <point x="432" y="385" type="line"/>
      <point x="454" y="525" type="line"/>
      <point x="31" y="525" type="line"/>
      <point x="-64" y="760" type="line"/>
      <point x="-184" y="760" type="line"/>
    </contour>
    <contour>
      <point x="-93" y="135" type="line"/>
      <point x="392" y="135" type="line"/>
      <point x="415" y="275" type="line"/>
      <point x="-70" y="275" type="line"/>
    </contour>
  </outline>
</glyph>
<glyph name="asciitilde_greater.liga" format="2">
  <advance width="600"/>
  <outline>
    <contour>
      <point x="90" y="35" type="line"/>
      <point x="271" y="35" type="line"/>
      <point x="538" y="330" type="line"/>
      <point x="365" y="625" type="line"/>
      <point x="193" y="625" type="line"/>
      <point x="381" y="295" type="line"/>
      <point x="406" y="348" type="line"/>
      <point x="409" y="364" type="line"/>
      <point x="268" y="307"/>
      <point x="324" y="445"/>
      <point x="191" y="445" type="curve" smooth="yes"/>
      <point x="71" y="445"/>
      <point x="47" y="325"/>
      <point x="-3" y="325" type="curve" smooth="yes"/>
      <point x="-53" y="325"/>
      <point x="-39" y="445"/>
      <point x="-159" y="445" type="curve" smooth="yes"/>
      <point x="-279" y="445"/>
      <point x="-303" y="325"/>
      <point x="-358" y="325" type="curve" smooth="yes"/>
      <point x="-380" y="325"/>
      <point x="-389" y="339"/>
      <point x="-386" y="364" type="curve" smooth="yes"/>
      <point x="-381" y="400" type="line"/>
      <point x="-501" y="400" type="line"/>
      <point x="-509" y="350" type="line" smooth="yes"/>
      <point x="-522" y="268"/>
      <point x="-465" y="215"/>
      <point x="-380" y="215" type="curve" smooth="yes"/>
      <point x="-260" y="215"/>
      <point x="-226" y="335"/>
      <point x="-176" y="335" type="curve" smooth="yes"/>
      <point x="-126" y="335"/>
      <point x="-140" y="215"/>
      <point x="-20" y="215" type="curve" smooth="yes"/>
      <point x="100" y="215"/>
      <point x="124" y="335"/>
      <point x="174" y="335" type="curve" smooth="yes"/>
      <point x="217" y="335"/>
      <point x="208" y="266"/>
      <point x="285" y="246" type="curve"/>
    </contour>
  </outline>
</glyph>
<glyph name="brevebelowcomb.case" format="2">
  <anchor x="-344" y="0" name="_bottom"/>
  <anchor x="-383" y="-245" name="bottom"/>
  <outline>
    <contour>
      <point x="-383" y="-245" type="curve" smooth="yes"/>
      <point x="-272" y="-245"/>
      <point x="-188" y="-185"/>
      <point x="-174" y="-95" type="curve"/>
      <point x="-289" y="-95" type="line"/>
      <point x="-295" y="-133"/>
      <point x="-327" y="-158"/>
      <point x="-369" y="-158" type="curve" smooth="yes"/>
      <point x="-410" y="-158"/>
      <point x="-435" y="-133"/>
      <point x="-429" y="-95" type="curve"/>
      <point x="-544" y="-95" type="line"/>
      <point x="-558" y="-185"/>
      <point x="-493" y="-245"/>
    </contour>
  </outline>
</glyph>
<glyph name="brevecomb_hookabovecomb.case" format="2">
  <anchor x="-228" y="730" name="_top"/>
  <anchor x="-183" y="1020" name="top"/>
  <outline>
    <contour>
      <point x="-257" y="890" type="line"/>
      <point x="-148" y="890" type="line"/>
      <point x="-138" y="901" type="line" smooth="yes"/>
      <point x="-125" y="916"/>
      <point x="-112" y="931"/>
      <point x="-108" y="954" type="curve" smooth="yes"/>
      <point x="-101" y="995"/>
      <point x="-127" y="1020"/>
      <point x="-182" y="1020" type="curve" smooth="yes"/>
      <point x="-282" y="1020" type="line"/>
      <point x="-294" y="949" type="line"/>
      <point x="-228" y="949" type="line" smooth="yes"/>
      <point x="-219" y="949"/>
      <point x="-214" y="945"/>
      <point x="-215" y="938" type="curve" smooth="yes"/>
      <point x="-216" y="932"/>
      <point x="-220" y="927"/>
      <point x="-227" y="920" type="curve" smooth="yes"/>
    </contour>
    <contour>
      <point x="-256" y="780" type="curve" smooth="yes"/>
      <point x="-185" y="780" type="line" smooth="yes"/>
      <point x="-84" y="780"/>
      <point x="-12" y="832"/>
      <point x="1" y="915" type="curve"/>
      <point x="-94" y="915" type="line"/>
      <point x="-99" y="881"/>
      <point x="-129" y="860"/>
      <point x="-173" y="860" type="curve" smooth="yes"/>
      <point x="-244" y="860" type="line" smooth="yes"/>
      <point x="-289" y="860"/>
      <point x="-310" y="881"/>
      <point x="-305" y="915" type="curve"/>
      <point x="-400" y="915" type="line"/>
      <point x="-413" y="832"/>
      <point x="-357" y="780"/>
    </contour>
  </outline>
</glyph>
<glyph name="caroncomb.alt" format="2">
  <anchor x="75" y="730" name="_topright"/>
  <outline>
    <contour>
      <point x="-132" y="550" type="line"/>
      <point x="-2" y="550" type="line"/>
      <point x="47" y="730" type="line"/>
      <point x="-93" y="730" type="line"/>
    </contour>
  </outline>
</glyph>
<glyph name="circumflexcomb_acutecomb.case" format="2">
  <anchor x="-228" y="730" name="_top"/>
  <anchor x="-98" y="1020" name="top"/>
  <outline>
    <contour>
      <point x="-84" y="905" type="line"/>
      <point x="57" y="905" type="line"/>
      <point x="191" y="1020" type="line"/>
      <point x="40" y="1020" type="line"/>
    </contour>
    <contour>
      <point x="-425" y="780" type="line"/>
      <point x="-284" y="780" type="line"/>
      <point x="-204" y="850" type="line"/>
      <point x="-146" y="780" type="line"/>
      <point x="-15" y="780" type="line"/>
      <point x="-128" y="920" type="line"/>
      <point x="-268" y="920" type="line"/>
    </contour>
  </outline>
</glyph>
<glyph name="circumflexcomb_acutecomb" format="2">
  <anchor x="-256" y="550" name="_top"/>
  <anchor x="-111" y="895" name="top"/>
  <outline>
    <contour>
      <point x="-104" y="755" type="line"/>
      <point x="33" y="755" type="line"/>
      <point x="185" y="895" type="line"/>
      <point x="38" y="895" type="line"/>
    </contour>
    <contour>
      <point x="-447" y="645" type="line"/>
      <point x="-309" y="645" type="line"/>
      <point x="-231" y="715" type="line"/>
      <point x="-170" y="645" type="line"/>
      <point x="-37" y="645" type="line"/>
      <point x="-150" y="785" type="line"/>
      <point x="-290" y="785" type="line"/>
    </contour>
  </outline>
</glyph>
<glyph name="circumflexcomb_gravecomb" format="2">
  <anchor x="-256" y="550" name="_top"/>
  <anchor x="-155" y="895" name="top"/>
  <outline>
    <contour>
      <point x="-58" y="755" type="line"/>
      <point x="75" y="755" type="line"/>
      <point x="-23" y="895" type="line"/>
      <point x="-166" y="895" type="line"/>
    </contour>
    <contour>
      <point x="-447" y="645" type="line"/>
      <point x="-309" y="645" type="line"/>
      <point x="-231" y="715" type="line"/>
      <point x="-170" y="645" type="line"/>
      <point x="-37" y="645" type="line"/>
      <point x="-150" y="785" type="line"/>
      <point x="-290" y="785" type="line"/>
    </contour>
  </outline>
</glyph>
<glyph name="dieresisbelowcomb.case" format="2">
  <anchor x="-343" y="0" name="_bottom"/>
  <anchor x="-380" y="-233" name="bottom"/>
  <outline>
    <contour>
      <point x="-258" y="-233" type="curve" smooth="yes"/>
      <point x="-209" y="-233"/>
      <point x="-173" y="-203"/>
      <point x="-166" y="-155" type="curve" smooth="yes"/>
      <point x="-158" y="-107"/>
      <point x="-184" y="-77"/>
      <point x="-233" y="-77" type="curve" smooth="yes"/>
      <point x="-282" y="-77"/>
      <point x="-318" y="-107"/>
      <point x="-326" y="-155" type="curve" smooth="yes"/>
      <point x="-333" y="-203"/>
      <point x="-307" y="-233"/>
    </contour>
    <contour>
      <point x="-502" y="-233" type="curve" smooth="yes"/>
      <point x="-453" y="-233"/>
      <point x="-417" y="-203"/>
      <point x="-410" y="-155" type="curve" smooth="yes"/>
      <point x="-402" y="-107"/>
      <point x="-428" y="-77"/>
      <point x="-477" y="-77" type="curve" smooth="yes"/>
      <point x="-526" y="-77"/>
      <point x="-562" y="-107"/>
      <point x="-570" y="-155" type="curve" smooth="yes"/>
      <point x="-577" y="-203"/>
      <point x="-551" y="-233"/>
    </contour>
  </outline>
</glyph>
<glyph name="equal_equal_equal.liga.old" format="2">
  <advance width="600"/>
  <outline>
    <contour>
      <point x="-1088" y="480" type="line"/>
      <point x="552" y="480" type="line"/>
      <point x="568" y="580" type="line"/>
      <point x="-1072" y="580" type="line"/>
    </contour>
    <contour>
      <point x="-1154" y="60" type="line"/>
      <point x="486" y="60" type="line"/>
      <point x="502" y="160" type="line"/>
      <point x="-1138" y="160" type="line"/>
    </contour>
    <contour>
      <point x="-1121" y="270" type="line"/>
      <point x="519" y="270" type="line"/>
      <point x="535" y="370" type="line"/>
      <point x="-1105" y="370" type="line"/>
    </contour>
  </outline>
</glyph>
<glyph name="equal_less_less.liga" format="2">
  <advance width="600"/>
  <outline>
    <contour>
      <point x="-25" y="35" type="line"/>
      <point x="147" y="35" type="line"/>
      <point x="-23" y="326" type="line"/>
      <point x="250" y="625" type="line"/>
      <point x="69" y="625" type="line"/>
      <point x="-22" y="525" type="line"/>
      <point x="-1081" y="525" type="line"/>
      <point x="-1103" y="385" type="line"/>
      <point x="-149" y="385" type="line"/>
      <point x="-199" y="330" type="line"/>
      <point x="-166" y="275" type="line"/>
      <point x="-1120" y="275" type="line"/>
      <point x="-1143" y="135" type="line"/>
      <point x="-85" y="135" type="line"/>
    </contour>
    <contour>
      <point x="295" y="35" type="line"/>
      <point x="467" y="35" type="line"/>
      <point x="297" y="326" type="line"/>
      <point x="570" y="625" type="line"/>
      <point x="389" y="625" type="line"/>
      <point x="121" y="330" type="line"/>
    </contour>
  </outline>
</glyph>
<glyph name="equal_slash_equal.liga" format="2">
  <advance width="600"/>
  <outline>
    <contour>
      <point x="-653" y="0" type="line"/>
      <point x="-503" y="0" type="line"/>
      <point x="-395" y="135" type="line"/>
      <point x="497" y="135" type="line"/>
      <point x="520" y="275" type="line"/>
      <point x="-281" y="275" type="line"/>
      <point x="-193" y="385" type="line"/>
      <point x="537" y="385" type="line"/>
      <point x="559" y="525" type="line"/>
      <point x="-81" y="525" type="line"/>
      <point x="32" y="665" type="line"/>
      <point x="-118" y="665" type="line"/>
      <point x="-231" y="525" type="line"/>
      <point x="-1121" y="525" type="line"/>
      <point x="-1143" y="385" type="line"/>
      <point x="-343" y="385" type="line"/>
      <point x="-431" y="275" type="line"/>
      <point x="-1160" y="275" type="line"/>
      <point x="-1183" y="135" type="line"/>
      <point x="-545" y="135" type="line"/>
    </contour>
  </outline>
</glyph>
<glyph name="greater_hyphen.liga" format="2">
  <advance width="600"/>
  <outline>
    <contour>
      <point x="-595" y="34" type="line"/>
      <point x="-414" y="35" type="line"/>
      <point x="-210" y="260" type="line"/>
      <point x="517" y="260" type="line"/>
      <point x="539" y="400" type="line"/>
      <point x="-188" y="400" type="line"/>
      <point x="-320" y="625" type="line"/>
      <point x="-492" y="625" type="line"/>
      <point x="-324" y="334" type="line"/>
    </contour>
  </outline>
</glyph>
<glyph name="greater_hyphen_greater.liga" format="2">
  <advance width="600"/>
  <outline>
    <contour>
      <point x="-1150" y="35" type="line"/>
      <point x="-969" y="35" type="line"/>
      <point x="-765" y="260" type="line"/>
      <point x="293" y="260" type="line"/>
      <point x="90" y="35" type="line"/>
      <point x="271" y="35" type="line"/>
      <point x="538" y="330" type="line"/>
      <point x="365" y="625" type="line"/>
      <point x="193" y="625" type="line"/>
      <point x="323" y="400" type="line"/>
      <point x="-743" y="400" type="line"/>
      <point x="-875" y="625" type="line"/>
      <point x="-1047" y="625" type="line"/>
      <point x="-878" y="333" type="line"/>
    </contour>
  </outline>
</glyph>
<glyph name="horncomb.case" format="2">
  <anchor x="-224" y="730" name="_horn"/>
  <anchor x="-173" y="730" name="_topright"/>
  <anchor x="79" y="840" name="topright"/>
  <outline>
    <contour>
      <point x="-169" y="630" type="line"/>
      <point x="-119" y="630" type="line" smooth="yes"/>
      <point x="-32" y="630"/>
      <point x="34" y="684"/>
      <point x="47" y="765" type="curve" smooth="yes"/>
      <point x="59" y="840" type="line"/>
      <point x="-61" y="840" type="line"/>
      <point x="-73" y="765" type="line" smooth="yes"/>
      <point x="-76" y="743"/>
      <point x="-91" y="730"/>
      <point x="-113" y="730" type="curve" smooth="yes"/>
      <point x="-153" y="730" type="line"/>
    </contour>
  </outline>
</glyph>
<glyph name="hungarumlautcomb.case" format="2">
  <anchor x="-228" y="730" name="_top"/>
  <anchor x="-156" y="950" name="top"/>
  <outline>
    <contour>
      <point x="-194" y="810" type="line"/>
      <point x="-58" y="810" type="line"/>
      <point x="79" y="950" type="line"/>
      <point x="-67" y="950" type="line"/>
    </contour>
    <contour>
      <point x="-414" y="810" type="line"/>
      <point x="-278" y="810" type="line"/>
      <point x="-141" y="950" type="line"/>
      <point x="-287" y="950" type="line"/>
    </contour>
  </outline>
</glyph>
<glyph name="hyphen_greater_greater.liga" format="2">
  <advance width="600"/>
  <outline>
    <contour>
      <point x="-230" y="35" type="line"/>
      <point x="-49" y="35" type="line"/>
      <point x="218" y="330" type="line"/>
      <point x="45" y="625" type="line"/>
      <point x="-127" y="625" type="line"/>
      <point x="3" y="400" type="line"/>
      <point x="-1101" y="400" type="line"/>
      <point x="-1123" y="260" type="line"/>
      <point x="-27" y="260" type="line"/>
    </contour>
    <contour>
      <point x="90" y="35" type="line"/>
      <point x="271" y="35" type="line"/>
      <point x="538" y="330" type="line"/>
      <point x="365" y="625" type="line"/>
      <point x="193" y="625" type="line"/>
      <point x="364" y="334" type="line"/>
    </contour>
  </outline>
</glyph>
<glyph name="hyphen_hyphen.liga" format="2">
  <advance width="600"/>
  <outline>
    <contour>
      <point x="42" y="260" type="line"/>
      <point x="457" y="260" type="line"/>
      <point x="479" y="400" type="line"/>
      <point x="64" y="400" type="line"/>
    </contour>
    <contour>
      <point x="-463" y="260" type="line"/>
      <point x="-48" y="260" type="line"/>
      <point x="-26" y="400" type="line"/>
      <point x="-441" y="400" type="line"/>
    </contour>
  </outline>
</glyph>
<glyph name="hyphen_less_less.liga" format="2">
  <advance width="600"/>
  <outline>
    <contour>
      <point x="-48" y="35" type="line"/>
      <point x="124" y="35" type="line"/>
      <point x="-45" y="324" type="line"/>
      <point x="227" y="625" type="line"/>
      <point x="46" y="625" type="line"/>
      <point x="-159" y="400" type="line"/>
      <point x="-1101" y="400" type="line"/>
      <point x="-1123" y="260" type="line"/>
      <point x="-181" y="260" type="line"/>
    </contour>
    <contour>
      <point x="295" y="35" type="line"/>
      <point x="467" y="35" type="line"/>
      <point x="298" y="324" type="line"/>
      <point x="570" y="625" type="line"/>
      <point x="389" y="625" type="line"/>
      <point x="121" y="330" type="line"/>
    </contour>
  </outline>
</glyph>
<glyph name="less_asciitilde.liga" format="2">
  <advance width="600"/>
  <outline>
    <contour>
      <point x="-348" y="35" type="line"/>
      <point x="-176" y="35" type="line"/>
      <point x="-296" y="246" type="line"/>
      <point x="-214" y="267"/>
      <point x="-198" y="335"/>
      <point x="-156" y="335" type="curve" smooth="yes"/>
      <point x="-106" y="335"/>
      <point x="-120" y="215"/>
      <point x="0" y="215" type="curve" smooth="yes"/>
      <point x="120" y="215"/>
      <point x="144" y="335"/>
      <point x="194" y="335" type="curve" smooth="yes"/>
      <point x="244" y="335"/>
      <point x="240" y="215"/>
      <point x="360" y="215" type="curve" smooth="yes"/>
      <point x="445" y="215"/>
      <point x="518" y="268"/>
      <point x="531" y="350" type="curve" smooth="yes"/>
      <point x="539" y="400" type="line"/>
      <point x="419" y="400" type="line"/>
      <point x="414" y="364" type="line" smooth="yes"/>
      <point x="411" y="339"/>
      <point x="394" y="325"/>
      <point x="372" y="325" type="curve" smooth="yes"/>
      <point x="317" y="325"/>
      <point x="331" y="445"/>
      <point x="211" y="445" type="curve" smooth="yes"/>
      <point x="91" y="445"/>
      <point x="67" y="325"/>
      <point x="17" y="325" type="curve" smooth="yes"/>
      <point x="-33" y="325"/>
      <point x="-19" y="445"/>
      <point x="-139" y="445" type="curve" smooth="yes"/>
      <point x="-273" y="445"/>
      <point x="-258" y="304"/>
      <point x="-383" y="366" type="curve"/>
      <point x="-386" y="350" type="line"/>
      <point x="-374" y="296" type="line"/>
      <point x="-73" y="625" type="line"/>
      <point x="-254" y="625" type="line"/>
      <point x="-522" y="330" type="line"/>
    </contour>
  </outline>
</glyph>
<glyph name="less_bar.liga" format="2">
  <advance width="600"/>
  <outline>
    <contour>
      <point x="133" y="-85" type="line"/>
      <point x="283" y="-85" type="line"/>
      <point x="415" y="750" type="line"/>
      <point x="265" y="750" type="line"/>
      <point x="-365" y="402" type="line"/>
      <point x="-388" y="258" type="line"/>
    </contour>
    <contour>
      <point x="156" y="81" type="line"/>
      <point x="-245" y="333" type="line"/>
      <point x="236" y="587" type="line"/>
    </contour>
  </outline>
</glyph>
<glyph name="less_equal.liga" format="2">
  <advance width="600"/>
  <outline>
    <contour>
      <point x="285" y="150" type="line"/>
      <point x="306" y="283" type="line"/>
      <point x="-99" y="411" type="line" smooth="yes"/>
      <point x="-126" y="419"/>
      <point x="-166" y="421"/>
      <point x="-189" y="420" type="curve"/>
      <point x="-187" y="430" type="line"/>
      <point x="-165" y="429"/>
      <point x="-124" y="430"/>
      <point x="-95" y="438" type="curve" smooth="yes"/>
      <point x="350" y="560" type="line"/>
      <point x="372" y="700" type="line"/>
      <point x="-270" y="498" type="line"/>
      <point x="-293" y="351" type="line"/>
    </contour>
    <contour>
      <point x="248" y="-80" type="line"/>
      <point x="268" y="47" type="line"/>
      <point x="-310" y="248" type="line"/>
      <point x="-330" y="121" type="line"/>
    </contour>
  </outline>
</glyph>
<glyph name="less_hyphen_bar.liga" format="2">
  <advance width="600"/>
  <outline>
    <contour>
      <point x="349" y="400" type="line"/>
      <point x="-882" y="400" type="line"/>
      <point x="-678" y="625" type="line"/>
      <point x="-854" y="625" type="line"/>
      <point x="-1122" y="330" type="line"/>
      <point x="-948" y="35" type="line"/>
      <point x="-771" y="35" type="line"/>
      <point x="-902" y="260" type="line"/>
      <point x="327" y="260" type="line"/>
      <point x="292" y="35" type="line"/>
      <point x="442" y="35" type="line"/>
      <point x="535" y="625" type="line"/>
      <point x="385" y="625" type="line"/>
    </contour>
  </outline>
</glyph>
<glyph name="less_less_hyphen.liga" format="2">
  <advance width="600"/>
  <outline>
    <contour>
      <point x="-628" y="35" type="line"/>
      <point x="-456" y="35" type="line"/>
      <point x="-587" y="260" type="line"/>
      <point x="517" y="260" type="line"/>
      <point x="539" y="400" type="line"/>
      <point x="-557" y="400" type="line"/>
      <point x="-353" y="625" type="line"/>
      <point x="-534" y="625" type="line"/>
      <point x="-802" y="330" type="line"/>
    </contour>
    <contour>
      <point x="-948" y="35" type="line"/>
      <point x="-776" y="35" type="line"/>
      <point x="-944" y="325" type="line"/>
      <point x="-673" y="625" type="line"/>
      <point x="-854" y="625" type="line"/>
      <point x="-1122" y="330" type="line"/>
    </contour>
  </outline>
</glyph>
<glyph name="less_numbersign_hyphen_hyphen.liga" format="2">
  <advance width="600"/>
  <outline>
    <contour>
      <point x="-1548" y="35" type="line"/>
      <point x="-1376" y="35" type="line"/>
      <point x="-1507" y="260" type="line"/>
      <point x="-1233" y="260" type="line"/>
      <point x="-1211" y="400" type="line"/>
      <point x="-1477" y="400" type="line"/>
      <point x="-1273" y="625" type="line"/>
      <point x="-1454" y="625" type="line"/>
      <point x="-1722" y="330" type="line"/>
    </contour>
    <contour>
      <point x="-563" y="260" type="line"/>
      <point x="517" y="260" type="line"/>
      <point x="539" y="400" type="line"/>
      <point x="-541" y="400" type="line"/>
    </contour>
    <component base="numbersign" xOffset="-1200"/>
  </outline>
</glyph>
<glyph name="less_slash.liga" format="2">
  <advance width="600"/>
  <outline>
    <contour>
      <point x="-51" y="-110" type="line"/>
      <point x="107" y="-110" type="line"/>
      <point x="597" y="830" type="line"/>
      <point x="439" y="830" type="line"/>
      <point x="70" y="125" type="line"/>
      <point x="-367" y="326" type="line"/>
      <point x="7" y="469" type="line"/>
      <point x="28" y="609" type="line"/>
      <point x="-465" y="400" type="line"/>
      <point x="-487" y="257" type="line"/>
      <point x="13" y="12" type="line"/>
    </contour>
  </outline>
</glyph>
<glyph name="macronbelowcomb.case" format="2">
  <anchor x="-344" y="0" name="_bottom"/>
  <anchor x="-379" y="-220" name="bottom"/>
  <outline>
    <contour>
      <point x="-559" y="-220" type="line"/>
      <point x="-199" y="-220" type="line"/>
      <point x="-181" y="-110" type="line"/>
      <point x="-541" y="-110" type="line"/>
    </contour>
  </outline>
</glyph>
<glyph name="numbersign_numbersign.liga" format="2">
  <advance width="600"/>
  <outline>
    <contour>
      <point x="-542" y="0" type="line"/>
      <point x="-442" y="0" type="line"/>
      <point x="-384" y="175" type="line"/>
      <point x="-254" y="175" type="line"/>
      <point x="-312" y="0" type="line"/>
      <point x="-212" y="0" type="line"/>
      <point x="-154" y="175" type="line"/>
      <point x="56" y="175" type="line"/>
      <point x="-2" y="0" type="line"/>
      <point x="98" y="0" type="line"/>
      <point x="156" y="175" type="line"/>
      <point x="286" y="175" type="line"/>
      <point x="228" y="0" type="line"/>
      <point x="328" y="0" type="line"/>
      <point x="386" y="175" type="line"/>
      <point x="483" y="175" type="line"/>
      <point x="499" y="275" type="line"/>
      <point x="419" y="275" type="line"/>
      <point x="476" y="455" type="line"/>
      <point x="562" y="455" type="line"/>
      <point x="578" y="555" type="line"/>
      <point x="509" y="555" type="line"/>
      <point x="568" y="730" type="line"/>
      <point x="468" y="730" type="line"/>
      <point x="409" y="555" type="line"/>
      <point x="279" y="555" type="line"/>
      <point x="338" y="730" type="line"/>
      <point x="238" y="730" type="line"/>
      <point x="179" y="555" type="line"/>
      <point x="-31" y="555" type="line"/>
      <point x="28" y="730" type="line"/>
      <point x="-72" y="730" type="line"/>
      <point x="-131" y="555" type="line"/>
      <point x="-261" y="555" type="line"/>
      <point x="-202" y="730" type="line"/>
      <point x="-302" y="730" type="line"/>
      <point x="-361" y="555" type="line"/>
      <point x="-457" y="555" type="line"/>
      <point x="-473" y="455" type="line"/>
      <point x="-394" y="455" type="line"/>
      <point x="-451" y="275" type="line"/>
      <point x="-536" y="275" type="line"/>
      <point x="-552" y="175" type="line"/>
      <point x="-484" y="175" type="line"/>
    </contour>
    <contour>
      <point x="-351" y="275" type="line"/>
      <point x="-294" y="455" type="line"/>
      <point x="-164" y="455" type="line"/>
      <point x="-221" y="275" type="line"/>
    </contour>
    <contour>
      <point x="-121" y="275" type="line"/>
      <point x="-64" y="455" type="line"/>
      <point x="146" y="455" type="line"/>
      <point x="89" y="275" type="line"/>
    </contour>
    <contour>
      <point x="189" y="275" type="line"/>
      <point x="246" y="455" type="line"/>
      <point x="376" y="455" type="line"/>
      <point x="319" y="275" type="line"/>
    </contour>
  </outline>
</glyph>
<glyph name="numbersign_numbersign_numbersign.liga" format="2">
  <advance width="600"/>
  <outline>
    <contour>
      <point x="-1142" y="0" type="line"/>
      <point x="-1042" y="0" type="line"/>
      <point x="-984" y="175" type="line"/>
      <point x="-854" y="175" type="line"/>
      <point x="-912" y="0" type="line"/>
      <point x="-812" y="0" type="line"/>
      <point x="-754" y="175" type="line"/>
      <point x="-514" y="175" type="line"/>
      <point x="-572" y="0" type="line"/>
      <point x="-472" y="0" type="line"/>
      <point x="-414" y="175" type="line"/>
      <point x="-284" y="175" type="line"/>
      <point x="-342" y="0" type="line"/>
      <point x="-242" y="0" type="line"/>
      <point x="-184" y="175" type="line"/>
      <point x="56" y="175" type="line"/>
      <point x="-2" y="0" type="line"/>
      <point x="98" y="0" type="line"/>
      <point x="156" y="175" type="line"/>
      <point x="286" y="175" type="line"/>
      <point x="228" y="0" type="line"/>
      <point x="328" y="0" type="line"/>
      <point x="386" y="175" type="line"/>
      <point x="483" y="175" type="line"/>
      <point x="499" y="275" type="line"/>
      <point x="419" y="275" type="line"/>
      <point x="476" y="455" type="line"/>
      <point x="562" y="455" type="line"/>
      <point x="578" y="555" type="line"/>
      <point x="509" y="555" type="line"/>
      <point x="568" y="730" type="line"/>
      <point x="468" y="730" type="line"/>
      <point x="409" y="555" type="line"/>
      <point x="279" y="555" type="line"/>
      <point x="338" y="730" type="line"/>
      <point x="238" y="730" type="line"/>
      <point x="179" y="555" type="line"/>
      <point x="-61" y="555" type="line"/>
      <point x="-2" y="730" type="line"/>
      <point x="-102" y="730" type="line"/>
      <point x="-161" y="555" type="line"/>
      <point x="-291" y="555" type="line"/>
      <point x="-232" y="730" type="line"/>
      <point x="-332" y="730" type="line"/>
      <point x="-391" y="555" type="line"/>
      <point x="-631" y="555" type="line"/>
      <point x="-572" y="730" type="line"/>
      <point x="-672" y="730" type="line"/>
      <point x="-731" y="555" type="line"/>
      <point x="-861" y="555" type="line"/>
      <point x="-802" y="730" type="line"/>
      <point x="-902" y="730" type="line"/>
      <point x="-961" y="555" type="line"/>
      <point x="-1057" y="555" type="line"/>
      <point x="-1073" y="455" type="line"/>
      <point x="-994" y="455" type="line"/>
      <point x="-1051" y="275" type="line"/>
      <point x="-1136" y="275" type="line"/>
      <point x="-1152" y="175" type="line"/>
      <point x="-1084" y="175" type="line"/>
    </contour>
    <contour>
      <point x="-951" y="275" type="line"/>
      <point x="-894" y="455" type="line"/>
      <point x="-764" y="455" type="line"/>
      <point x="-821" y="275" type="line"/>
    </contour>
    <contour>
      <point x="-721" y="275" type="line"/>
      <point x="-664" y="455" type="line"/>
      <point x="-424" y="455" type="line"/>
      <point x="-481" y="275" type="line"/>
    </contour>
    <contour>
      <point x="-381" y="275" type="line"/>
      <point x="-324" y="455" type="line"/>
      <point x="-194" y="455" type="line"/>
      <point x="-251" y="275" type="line"/>
    </contour>
    <contour>
      <point x="-151" y="275" type="line"/>
      <point x="-94" y="455" type="line"/>
      <point x="146" y="455" type="line"/>
      <point x="89" y="275" type="line"/>
    </contour>
    <contour>
      <point x="189" y="275" type="line"/>
      <point x="246" y="455" type="line"/>
      <point x="376" y="455" type="line"/>
      <point x="319" y="275" type="line"/>
    </contour>
  </outline>
</glyph>
<glyph name="numbersign_numbersign_numbersign_numbersign.liga" format="2">
  <advance width="600"/>
  <outline>
    <contour>
      <point x="-1722" y="0" type="line"/>
      <point x="-1622" y="0" type="line"/>
      <point x="-1564" y="175" type="line"/>
      <point x="-1434" y="175" type="line"/>
      <point x="-1492" y="0" type="line"/>
      <point x="-1392" y="0" type="line"/>
      <point x="-1334" y="175" type="line"/>
      <point x="-1083" y="175" type="line"/>
      <point x="-1141" y="0" type="line"/>
      <point x="-1041" y="0" type="line"/>
      <point x="-983" y="175" type="line"/>
      <point x="-853" y="175" type="line"/>
      <point x="-911" y="0" type="line"/>
      <point x="-811" y="0" type="line"/>
      <point x="-753" y="175" type="line"/>
      <point x="-514" y="175" type="line"/>
      <point x="-572" y="0" type="line"/>
      <point x="-472" y="0" type="line"/>
      <point x="-414" y="175" type="line"/>
      <point x="-284" y="175" type="line"/>
      <point x="-342" y="0" type="line"/>
      <point x="-242" y="0" type="line"/>
      <point x="-184" y="175" type="line"/>
      <point x="56" y="175" type="line"/>
      <point x="-2" y="0" type="line"/>
      <point x="98" y="0" type="line"/>
      <point x="156" y="175" type="line"/>
      <point x="286" y="175" type="line"/>
      <point x="228" y="0" type="line"/>
      <point x="328" y="0" type="line"/>
      <point x="386" y="175" type="line"/>
      <point x="483" y="175" type="line"/>
      <point x="499" y="275" type="line"/>
      <point x="419" y="275" type="line"/>
      <point x="476" y="455" type="line"/>
      <point x="562" y="455" type="line"/>
      <point x="578" y="555" type="line"/>
      <point x="509" y="555" type="line"/>
      <point x="568" y="730" type="line"/>
      <point x="468" y="730" type="line"/>
      <point x="409" y="555" type="line"/>
      <point x="279" y="555" type="line"/>
      <point x="338" y="730" type="line"/>
      <point x="238" y="730" type="line"/>
      <point x="179" y="555" type="line"/>
      <point x="-61" y="555" type="line"/>
      <point x="-2" y="730" type="line"/>
      <point x="-102" y="730" type="line"/>
      <point x="-161" y="555" type="line"/>
      <point x="-291" y="555" type="line"/>
      <point x="-232" y="730" type="line"/>
      <point x="-332" y="730" type="line"/>
      <point x="-391" y="555" type="line"/>
      <point x="-630" y="555" type="line"/>
      <point x="-571" y="730" type="line"/>
      <point x="-671" y="730" type="line"/>
      <point x="-730" y="555" type="line"/>
      <point x="-860" y="555" type="line"/>
      <point x="-801" y="730" type="line"/>
      <point x="-901" y="730" type="line"/>
      <point x="-960" y="555" type="line"/>
      <point x="-1211" y="555" type="line"/>
      <point x="-1152" y="730" type="line"/>
      <point x="-1252" y="730" type="line"/>
      <point x="-1311" y="555" type="line"/>
      <point x="-1441" y="555" type="line"/>
      <point x="-1382" y="730" type="line"/>
      <point x="-1482" y="730" type="line"/>
      <point x="-1541" y="555" type="line"/>
      <point x="-1637" y="555" type="line"/>
      <point x="-1653" y="455" type="line"/>
      <point x="-1574" y="455" type="line"/>
      <point x="-1631" y="275" type="line"/>
      <point x="-1716" y="275" type="line"/>
      <point x="-1732" y="175" type="line"/>
      <point x="-1664" y="175" type="line"/>
    </contour>
    <contour>
      <point x="-1531" y="275" type="line"/>
      <point x="-1474" y="455" type="line"/>
      <point x="-1344" y="455" type="line"/>
      <point x="-1401" y="275" type="line"/>
    </contour>
    <contour>
      <point x="-1301" y="275" type="line"/>
      <point x="-1244" y="455" type="line"/>
      <point x="-993" y="455" type="line"/>
      <point x="-1050" y="275" type="line"/>
    </contour>
    <contour>
      <point x="-950" y="275" type="line"/>
      <point x="-893" y="455" type="line"/>
      <point x="-763" y="455" type="line"/>
      <point x="-820" y="275" type="line"/>
    </contour>
    <contour>
      <point x="-720" y="275" type="line"/>
      <point x="-663" y="455" type="line"/>
      <point x="-424" y="455" type="line"/>
      <point x="-481" y="275" type="line"/>
    </contour>
    <contour>
      <point x="-381" y="275" type="line"/>
      <point x="-324" y="455" type="line"/>
      <point x="-194" y="455" type="line"/>
      <point x="-251" y="275" type="line"/>
    </contour>
    <contour>
      <point x="-151" y="275" type="line"/>
      <point x="-94" y="455" type="line"/>
      <point x="146" y="455" type="line"/>
      <point x="89" y="275" type="line"/>
    </contour>
    <contour>
      <point x="189" y="275" type="line"/>
      <point x="246" y="455" type="line"/>
      <point x="376" y="455" type="line"/>
      <point x="319" y="275" type="line"/>
    </contour>
  </outline>
</glyph>
<glyph name="numbersign_question.liga" format="2">
  <advance width="600"/>
  <outline>
    <contour>
      <point x="-571" y="0" type="line"/>
      <point x="-471" y="0" type="line"/>
      <point x="-413" y="175" type="line"/>
      <point x="-283" y="175" type="line"/>
      <point x="-341" y="0" type="line"/>
      <point x="-241" y="0" type="line"/>
      <point x="-183" y="175" type="line"/>
      <point x="-86" y="175" type="line"/>
      <point x="-70" y="275" type="line"/>
      <point x="-150" y="275" type="line"/>
      <point x="-93" y="455" type="line"/>
      <point x="178" y="455" type="line"/>
      <point x="188" y="520" type="line" smooth="yes"/>
      <point x="197" y="572"/>
      <point x="245" y="600"/>
      <point x="326" y="600" type="curve" smooth="yes"/>
      <point x="407" y="600"/>
      <point x="447" y="572"/>
      <point x="438" y="520" type="curve" smooth="yes"/>
      <point x="430" y="467"/>
      <point x="384" y="440"/>
      <point x="307" y="440" type="curve" smooth="yes"/>
      <point x="237" y="440" type="line"/>
      <point x="208" y="225" type="line"/>
      <point x="333" y="225" type="line"/>
      <point x="345" y="305" type="line"/>
      <point x="471" y="305"/>
      <point x="568" y="390"/>
      <point x="588" y="520" type="curve" smooth="yes"/>
      <point x="610" y="655"/>
      <point x="517" y="740"/>
      <point x="348" y="740" type="curve" smooth="yes"/>
      <point x="177" y="740"/>
      <point x="58" y="654"/>
      <point x="36" y="516" type="curve"/>
      <point x="119" y="555" type="line"/>
      <point x="-60" y="555" type="line"/>
      <point x="-1" y="730" type="line"/>
      <point x="-101" y="730" type="line"/>
      <point x="-160" y="555" type="line"/>
      <point x="-290" y="555" type="line"/>
      <point x="-231" y="730" type="line"/>
      <point x="-331" y="730" type="line"/>
      <point x="-390" y="555" type="line"/>
      <point x="-486" y="555" type="line"/>
      <point x="-502" y="455" type="line"/>
      <point x="-423" y="455" type="line"/>
      <point x="-480" y="275" type="line"/>
      <point x="-565" y="275" type="line"/>
      <point x="-581" y="175" type="line"/>
      <point x="-513" y="175" type="line"/>
    </contour>
    <contour>
      <point x="-380" y="275" type="line"/>
      <point x="-323" y="455" type="line"/>
      <point x="-193" y="455" type="line"/>
      <point x="-250" y="275" type="line"/>
    </contour>
    <contour>
      <point x="214" y="-5" type="curve" smooth="yes"/>
      <point x="243" y="-5" type="line" smooth="yes"/>
      <point x="289" y="-5"/>
      <point x="323" y="22"/>
      <point x="330" y="65" type="curve" smooth="yes"/>
      <point x="337" y="107"/>
      <point x="311" y="135"/>
      <point x="266" y="135" type="curve" smooth="yes"/>
      <point x="236" y="135" type="line" smooth="yes"/>
      <point x="191" y="135"/>
      <point x="157" y="107"/>
      <point x="150" y="65" type="curve" smooth="yes"/>
      <point x="144" y="23"/>
      <point x="169" y="-5"/>
    </contour>
  </outline>
</glyph>
<glyph name="numbersign_underscore_parenleft.liga" format="2">
  <advance width="600"/>
  <outline>
    <contour>
      <point x="-997" y="-165" type="line"/>
      <point x="415" y="-165" type="line"/>
      <point x="437" y="-23" type="line"/>
      <point x="330" y="4"/>
      <point x="276" y="94"/>
      <point x="295" y="214" type="curve" smooth="yes"/>
      <point x="333" y="455" type="line" smooth="yes"/>
      <point x="353" y="578"/>
      <point x="434" y="667"/>
      <point x="551" y="695" type="curve"/>
      <point x="575" y="845" type="line"/>
      <point x="359" y="789"/>
      <point x="213" y="645"/>
      <point x="183" y="455" type="curve" smooth="yes"/>
      <point x="145" y="214" type="line" smooth="yes"/>
      <point x="130" y="118"/>
      <point x="155" y="15"/>
      <point x="211" y="-25" type="curve"/>
      <point x="-851" y="-25" type="line"/>
      <point x="-784" y="175" type="line"/>
      <point x="-687" y="175" type="line"/>
      <point x="-671" y="275" type="line"/>
      <point x="-751" y="275" type="line"/>
      <point x="-694" y="455" type="line"/>
      <point x="-608" y="455" type="line"/>
      <point x="-592" y="555" type="line"/>
      <point x="-661" y="555" type="line"/>
      <point x="-602" y="730" type="line"/>
      <point x="-702" y="730" type="line"/>
      <point x="-761" y="555" type="line"/>
      <point x="-891" y="555" type="line"/>
      <point x="-832" y="730" type="line"/>
      <point x="-932" y="730" type="line"/>
      <point x="-991" y="555" type="line"/>
      <point x="-1087" y="555" type="line"/>
      <point x="-1103" y="455" type="line"/>
      <point x="-1024" y="455" type="line"/>
      <point x="-1081" y="275" type="line"/>
      <point x="-1166" y="275" type="line"/>
      <point x="-1182" y="175" type="line"/>
      <point x="-1114" y="175" type="line"/>
      <point x="-1172" y="0" type="line"/>
      <point x="-1072" y="0" type="line"/>
      <point x="-1014" y="175" type="line"/>
      <point x="-884" y="175" type="line"/>
    </contour>
    <contour>
      <point x="-981" y="275" type="line"/>
      <point x="-924" y="455" type="line"/>
      <point x="-794" y="455" type="line"/>
      <point x="-851" y="275" type="line"/>
    </contour>
  </outline>
</glyph>
<glyph name="ringcomb.case" format="2">
  <anchor x="-227" y="730" name="_top"/>
  <anchor x="-184" y="1007" name="top"/>
  <outline>
    <contour>
      <point x="-224" y="753" type="curve" smooth="yes"/>
      <point x="-140" y="753"/>
      <point x="-76" y="804"/>
      <point x="-64" y="880" type="curve" smooth="yes"/>
      <point x="-52" y="956"/>
      <point x="-100" y="1007"/>
      <point x="-184" y="1007" type="curve" smooth="yes"/>
      <point x="-268" y="1007"/>
      <point x="-332" y="956"/>
      <point x="-344" y="880" type="curve" smooth="yes"/>
      <point x="-356" y="804"/>
      <point x="-308" y="753"/>
    </contour>
    <contour>
      <point x="-213" y="823" type="curve" smooth="yes"/>
      <point x="-249" y="823"/>
      <point x="-269" y="846"/>
      <point x="-264" y="880" type="curve" smooth="yes"/>
      <point x="-258" y="914"/>
      <point x="-231" y="937"/>
      <point x="-195" y="937" type="curve" smooth="yes"/>
      <point x="-159" y="937"/>
      <point x="-138" y="914"/>
      <point x="-144" y="880" type="curve" smooth="yes"/>
      <point x="-149" y="846"/>
      <point x="-177" y="823"/>
    </contour>
  </outline>
</glyph>
